<?xml version="1.0" encoding="utf-8"?>
<!-- Generator: Adobe Illustrator 24.2.3, SVG Export Plug-In . SVG Version: 6.00 Build 0)  -->
<svg version="1.1" xmlns="http://www.w3.org/2000/svg" xmlns:xlink="http://www.w3.org/1999/xlink" x="0px" y="0px"
	 viewBox="0 0 32 32" style="enable-background:new 0 0 32 32;" xml:space="preserve">
<style type="text/css">
	.st0{display:none;}
	.st1{display:inline;}
	.st2{display:inline;fill:#010202;}
	.st3{fill:#010202;}
	.st4{fill:#FFFFFF;}
	.st5{fill:#D8D8D8;}
	.st6{display:inline;fill:#FFFFFF;}
	.st7{fill:#DDDDDD;}
</style>
<g id="Calque_1" class="st0">
	<path class="st1" d="M-34.5,10.7V7.1h-3.6V3.6h-3.6V0h-3.6h-3.6h-3.6v3.6h-3.6v3.6h-3.6v3.6H-63v3.6h3.6v3.6v3.6v3.6v3.6V32h3.6
		h3.6h3.6h3.6h3.6h3.6h3.6v-3.6v0v-3.6v-3.6v-3.6v-3.6h3.6v-3.6H-34.5z M-52.3,7.1h3.6V3.6h3.6v3.6h3.6v3.6h-3.6h-3.6h-3.6V7.1z
		 M-45.2,24.9v3.6h-3.6v-3.6v-3.6h3.6V24.9z M-38.1,17.8v3.6v3.6v3.6v0h-3.6v-3.6v-3.6v-3.6h-3.6h-3.6h-3.6v3.6v3.6v3.6h-3.6v-3.6
		v-3.6v-3.6v-3.6h3.6h3.6h3.6h3.6h3.6V17.8z"/>
</g>
<g id="Calque_18" class="st0">
	
		<rect x="-63" y="28.4" transform="matrix(-1.836970e-16 1 -1 -1.836970e-16 -30.9596 91.404)" class="st1" width="3.6" height="3.6"/>
	
		<rect x="-59.4" y="28.4" transform="matrix(-1.836970e-16 1 -1 -1.836970e-16 -27.404 87.8485)" class="st1" width="3.6" height="3.6"/>
	
		<rect x="-55.8" y="28.4" transform="matrix(-1.836970e-16 1 -1 -1.836970e-16 -23.8485 84.2929)" class="st1" width="3.6" height="3.6"/>
	
		<rect x="-52.3" y="28.4" transform="matrix(-1.836970e-16 1 -1 -1.836970e-16 -20.2929 80.7374)" class="st1" width="3.6" height="3.6"/>
	
		<rect x="-48.7" y="28.4" transform="matrix(-1.836970e-16 1 -1 -1.836970e-16 -16.7374 77.1818)" class="st1" width="3.6" height="3.6"/>
	
		<rect x="-45.2" y="28.4" transform="matrix(-1.836970e-16 1 -1 -1.836970e-16 -13.1818 73.6263)" class="st1" width="3.6" height="3.6"/>
	
		<rect x="-41.6" y="28.4" transform="matrix(-1.836970e-16 1 -1 -1.836970e-16 -9.6263 70.0707)" class="st1" width="3.6" height="3.6"/>
	
		<rect x="-38.1" y="28.4" transform="matrix(-1.836970e-16 1 -1 -1.836970e-16 -6.0707 66.5152)" class="st1" width="3.6" height="3.6"/>
	<rect x="-63" y="24.9" class="st1" width="3.6" height="3.6"/>
	<rect x="-63" y="21.3" class="st1" width="3.6" height="3.6"/>
	<rect x="-63" y="17.8" class="st1" width="3.6" height="3.6"/>
	<rect x="-63" y="14.2" class="st1" width="3.6" height="3.6"/>
	<rect x="-63" y="10.7" class="st1" width="3.6" height="3.6"/>
	<rect x="-63" y="7.1" class="st1" width="3.6" height="3.6"/>
	<rect x="-63" y="3.6" class="st1" width="3.6" height="3.6"/>
	<rect x="-63" class="st1" width="3.6" height="3.6"/>
	<rect x="-59.4" class="st1" width="3.6" height="3.6"/>
	<rect x="-55.8" class="st1" width="3.6" height="3.6"/>
	<rect x="-34.5" class="st1" width="3.6" height="3.6"/>
	<rect x="-34.5" y="3.6" class="st1" width="3.6" height="3.6"/>
	<rect x="-34.5" y="7.1" class="st1" width="3.6" height="3.6"/>
	<rect x="-34.5" y="10.7" class="st1" width="3.6" height="3.6"/>
	<rect x="-38.1" class="st1" width="3.6" height="3.6"/>
	<rect x="-41.6" class="st1" width="3.6" height="3.6"/>
	<rect x="-45.2" class="st1" width="3.6" height="3.6"/>
	<rect x="-38.1" y="3.6" class="st1" width="3.6" height="3.6"/>
	<rect x="-41.6" y="7.1" class="st1" width="3.6" height="3.6"/>
	<rect x="-45.2" y="10.7" class="st1" width="3.6" height="3.6"/>
	<rect x="-48.7" y="14.2" class="st1" width="3.6" height="3.6"/>
	<rect x="-52.3" y="17.8" class="st1" width="3.6" height="3.6"/>
	<rect x="-55.8" y="21.3" class="st1" width="3.6" height="3.6"/>
	
		<rect x="-34.5" y="28.4" transform="matrix(-1.836970e-16 1 -1 -1.836970e-16 -2.5152 62.9596)" class="st1" width="3.6" height="3.6"/>
	
		<rect x="-34.5" y="24.9" transform="matrix(-1.836970e-16 1 -1 -1.836970e-16 -6.0707 59.404)" class="st1" width="3.6" height="3.6"/>
	
		<rect x="-34.5" y="21.3" transform="matrix(-1.836970e-16 1 -1 -1.836970e-16 -9.6263 55.8485)" class="st1" width="3.6" height="3.6"/>
</g>
<g id="Calque_6" class="st0">
	<rect x="-63" y="28.4" class="st1" width="3.6" height="3.6"/>
	<rect x="-59.4" y="28.4" class="st1" width="3.6" height="3.6"/>
	<rect x="-55.8" y="28.4" class="st1" width="3.6" height="3.6"/>
	<rect x="-52.3" y="28.4" class="st1" width="3.6" height="3.6"/>
	<rect x="-48.7" y="28.4" class="st1" width="3.6" height="3.6"/>
	<rect x="-45.2" y="28.4" class="st1" width="3.6" height="3.6"/>
	<rect x="-41.6" y="28.4" class="st1" width="3.6" height="3.6"/>
	<rect x="-38.1" y="28.4" class="st1" width="3.6" height="3.6"/>
	<rect x="-34.5" y="28.4" class="st1" width="3.6" height="3.6"/>
	<rect x="-63" y="7.1" class="st1" width="3.6" height="3.6"/>
	<rect x="-59.4" y="7.1" class="st1" width="3.6" height="3.6"/>
	<rect x="-55.8" y="7.1" class="st1" width="3.6" height="3.6"/>
	
		<rect x="-63" y="21.3" transform="matrix(-1.836970e-16 1 -1 -1.836970e-16 -38.0707 84.2929)" class="st1" width="3.6" height="3.6"/>
	
		<rect x="-63" y="24.9" transform="matrix(-1.836970e-16 1 -1 -1.836970e-16 -34.5152 87.8485)" class="st1" width="3.6" height="3.6"/>
	
		<rect x="-63" y="14.2" transform="matrix(-1.836970e-16 1 -1 -1.836970e-16 -45.1818 77.1818)" class="st1" width="3.6" height="3.6"/>
	
		<rect x="-63" y="10.7" transform="matrix(-1.836970e-16 1 -1 -1.836970e-16 -48.7374 73.6263)" class="st1" width="3.6" height="3.6"/>
	
		<rect x="-63" y="17.8" transform="matrix(-1.836970e-16 1 -1 -1.836970e-16 -41.6263 80.7374)" class="st1" width="3.6" height="3.6"/>
	
		<rect x="-55.8" y="17.8" transform="matrix(-1.836970e-16 1 -1 -1.836970e-16 -34.5152 73.6263)" class="st1" width="3.6" height="3.6"/>
	
		<rect x="-55.8" y="14.2" transform="matrix(-1.836970e-16 1 -1 -1.836970e-16 -38.0707 70.0707)" class="st1" width="3.6" height="3.6"/>
	
		<rect x="-55.8" y="21.3" transform="matrix(-1.836970e-16 1 -1 -1.836970e-16 -30.9596 77.1818)" class="st1" width="3.6" height="3.6"/>
	
		<rect x="-52.3" y="17.8" transform="matrix(-1.836970e-16 1 -1 -1.836970e-16 -30.9596 70.0707)" class="st1" width="3.6" height="3.6"/>
	
		<rect x="-41.6" y="14.2" transform="matrix(-1.836970e-16 1 -1 -1.836970e-16 -23.8485 55.8485)" class="st1" width="3.6" height="3.6"/>
	
		<rect x="-41.6" y="21.3" transform="matrix(-1.836970e-16 1 -1 -1.836970e-16 -16.7374 62.9596)" class="st1" width="3.6" height="3.6"/>
	
		<rect x="-59.4" y="17.8" transform="matrix(-1.836970e-16 1 -1 -1.836970e-16 -38.0707 77.1818)" class="st1" width="3.6" height="3.6"/>
	
		<rect x="-34.5" y="14.2" transform="matrix(-1.836970e-16 1 -1 -1.836970e-16 -16.7374 48.7374)" class="st1" width="3.6" height="3.6"/>
	
		<rect x="-34.5" y="10.7" transform="matrix(-1.836970e-16 1 -1 -1.836970e-16 -20.2929 45.1818)" class="st1" width="3.6" height="3.6"/>
	
		<rect x="-34.5" y="17.8" transform="matrix(-1.836970e-16 1 -1 -1.836970e-16 -13.1818 52.2929)" class="st1" width="3.6" height="3.6"/>
	
		<rect x="-34.5" y="21.3" transform="matrix(-1.836970e-16 1 -1 -1.836970e-16 -9.6263 55.8485)" class="st1" width="3.6" height="3.6"/>
	
		<rect x="-34.5" y="24.9" transform="matrix(-1.836970e-16 1 -1 -1.836970e-16 -6.0707 59.404)" class="st1" width="3.6" height="3.6"/>
	<rect x="-52.3" y="7.1" class="st1" width="3.6" height="3.6"/>
	<rect x="-48.7" y="7.1" class="st1" width="3.6" height="3.6"/>
	<rect x="-48.7" class="st1" width="3.6" height="3.6"/>
	<rect x="-48.7" y="3.6" class="st1" width="3.6" height="3.6"/>
	<rect x="-45.2" y="7.1" class="st1" width="3.6" height="3.6"/>
	<rect x="-41.6" y="7.1" class="st1" width="3.6" height="3.6"/>
	<rect x="-38.1" y="7.1" class="st1" width="3.6" height="3.6"/>
	<rect x="-34.5" y="7.1" class="st1" width="3.6" height="3.6"/>
</g>
<g id="Calque_7" class="st0">
	
		<rect x="-34.5" y="21.3" transform="matrix(6.123234e-17 -1 1 6.123234e-17 -55.8519 -9.6374)" class="st1" width="3.6" height="3.6"/>
	
		<rect x="-34.5" y="17.8" transform="matrix(6.123234e-17 -1 1 6.123234e-17 -52.2963 -13.193)" class="st1" width="3.6" height="3.6"/>
	
		<rect x="-34.5" y="14.2" transform="matrix(6.123234e-17 -1 1 6.123234e-17 -48.7408 -16.7485)" class="st1" width="3.6" height="3.6"/>
	
		<rect x="-34.5" y="10.7" transform="matrix(6.123234e-17 -1 1 6.123234e-17 -45.1852 -20.3041)" class="st1" width="3.6" height="3.6"/>
	
		<rect x="-34.5" y="7.1" transform="matrix(6.123234e-17 -1 1 6.123234e-17 -41.6296 -23.8596)" class="st1" width="3.6" height="3.6"/>
	
		<rect x="-38.1" y="21.3" transform="matrix(-1 -1.224647e-16 1.224647e-16 -1 -72.6004 46.2145)" class="st1" width="3.6" height="3.6"/>
	
		<rect x="-41.6" y="21.3" transform="matrix(-1 -1.224647e-16 1.224647e-16 -1 -79.7115 46.2145)" class="st1" width="3.6" height="3.6"/>
	
		<rect x="-45.2" y="21.3" transform="matrix(-1 -1.224647e-16 1.224647e-16 -1 -86.8226 46.2145)" class="st1" width="3.6" height="3.6"/>
	
		<rect x="-45.2" y="24.9" transform="matrix(-1 -1.224647e-16 1.224647e-16 -1 -86.7794 53.3256)" class="st1" width="3.6" height="3.6"/>
	
		<rect x="-45.2" y="28.4" transform="matrix(-1 -1.224647e-16 1.224647e-16 -1 -86.7794 60.4367)" class="st1" width="3.6" height="3.6"/>
	
		<rect x="-48.7" y="28.4" transform="matrix(-1 -1.224647e-16 1.224647e-16 -1 -93.8905 60.4367)" class="st1" width="3.6" height="3.6"/>
	
		<rect x="-52.3" y="24.9" transform="matrix(-1 -1.224647e-16 1.224647e-16 -1 -101.0016 53.3256)" class="st1" width="3.6" height="3.6"/>
	
		<rect x="-55.8" y="21.3" transform="matrix(-1 -1.224647e-16 1.224647e-16 -1 -108.1127 46.2145)" class="st1" width="3.6" height="3.6"/>
	
		<rect x="-59.4" y="17.8" transform="matrix(-1 -1.224647e-16 1.224647e-16 -1 -115.2535 39.1169)" class="st1" width="3.6" height="3.6"/>
	
		<rect x="-59.4" y="10.7" transform="matrix(-1 -1.224647e-16 1.224647e-16 -1 -115.2535 24.8811)" class="st1" width="3.6" height="3.6"/>
	
		<rect x="-63" y="14.2" transform="matrix(-1 -1.224647e-16 1.224647e-16 -1 -122.3714 32.0057)" class="st1" width="3.6" height="3.6"/>
	
		<rect x="-63" y="17.8" transform="matrix(-1 -1.224647e-16 1.224647e-16 -1 -122.3647 39.1169)" class="st1" width="3.6" height="3.6"/>
	
		<rect x="-59.4" y="21.3" transform="matrix(-1 -1.224647e-16 1.224647e-16 -1 -115.2238 46.2246)" class="st1" width="3.6" height="3.6"/>
	
		<rect x="-55.8" y="24.9" transform="matrix(-1 -1.224647e-16 1.224647e-16 -1 -108.1127 53.3256)" class="st1" width="3.6" height="3.6"/>
	
		<rect x="-52.3" y="28.4" transform="matrix(-1 -1.224647e-16 1.224647e-16 -1 -101.0016 60.4367)" class="st1" width="3.6" height="3.6"/>
	
		<rect x="-52.3" y="3.6" transform="matrix(-1 -1.224647e-16 1.224647e-16 -1 -101.0313 10.6589)" class="st1" width="3.6" height="3.6"/>
	
		<rect x="-55.8" y="7.1" transform="matrix(-1 -1.224647e-16 1.224647e-16 -1 -108.1424 17.77)" class="st1" width="3.6" height="3.6"/>
	
		<rect x="-45.2" y="0" transform="matrix(-1 -1.224647e-16 1.224647e-16 -1 -86.8226 3.5478)" class="st1" width="3.6" height="3.6"/>
	
		<rect x="-48.7" y="0" transform="matrix(-1 -1.224647e-16 1.224647e-16 -1 -93.9337 3.5478)" class="st1" width="3.6" height="3.6"/>
	
		<rect x="-63" y="10.7" transform="matrix(-1 -1.224647e-16 1.224647e-16 -1 -122.3647 24.8946)" class="st1" width="3.6" height="3.6"/>
	
		<rect x="-55.8" y="3.6" transform="matrix(-1 -1.224647e-16 1.224647e-16 -1 -108.1424 10.6589)" class="st1" width="3.6" height="3.6"/>
	
		<rect x="-59.4" y="7.1" transform="matrix(-1 -1.224647e-16 1.224647e-16 -1 -115.2535 17.77)" class="st1" width="3.6" height="3.6"/>
	
		<rect x="-52.3" y="0" transform="matrix(-1 -1.224647e-16 1.224647e-16 -1 -101.0313 3.5478)" class="st1" width="3.6" height="3.6"/>
	
		<rect x="-45.2" y="3.6" transform="matrix(-1 -1.224647e-16 1.224647e-16 -1 -86.8226 10.6589)" class="st1" width="3.6" height="3.6"/>
	
		<rect x="-38.1" y="7.1" transform="matrix(-1 -1.224647e-16 1.224647e-16 -1 -72.6004 17.77)" class="st1" width="3.6" height="3.6"/>
	
		<rect x="-41.6" y="7.1" transform="matrix(-1 -1.224647e-16 1.224647e-16 -1 -79.7115 17.77)" class="st1" width="3.6" height="3.6"/>
	
		<rect x="-45.2" y="7.1" transform="matrix(-1 -1.224647e-16 1.224647e-16 -1 -86.8226 17.77)" class="st1" width="3.6" height="3.6"/>
</g>
<g id="Calque_16" class="st0">
	
		<rect x="-34.5" y="17.8" transform="matrix(6.123234e-17 -1 1 6.123234e-17 -52.2899 -13.1595)" class="st1" width="3.6" height="3.6"/>
	
		<rect x="-45.2" y="21.3" transform="matrix(6.123234e-17 -1 1 6.123234e-17 -66.5104 -20.2723)" class="st1" width="3.6" height="3.6"/>
	
		<rect x="-34.5" y="14.2" transform="matrix(6.123234e-17 -1 1 6.123234e-17 -48.7276 -16.7218)" class="st1" width="3.6" height="3.6"/>
	
		<rect x="-34.5" y="10.7" transform="matrix(6.123234e-17 -1 1 6.123234e-17 -45.172 -20.2774)" class="st1" width="3.6" height="3.6"/>
	
		<rect x="-45.1" y="10.7" transform="matrix(6.123234e-17 -1 1 6.123234e-17 -55.8238 -30.9157)" class="st1" width="3.6" height="3.6"/>
	
		<rect x="-38.1" y="17.8" transform="matrix(-1 -1.224647e-16 1.224647e-16 -1 -72.5605 39.1304)" class="st1" width="3.6" height="3.6"/>
	
		<rect x="-41.6" y="17.8" transform="matrix(-1 -1.224647e-16 1.224647e-16 -1 -79.6716 39.1304)" class="st1" width="3.6" height="3.6"/>
	
		<rect x="-45.2" y="17.8" transform="matrix(-1 -1.224647e-16 1.224647e-16 -1 -86.7828 39.1304)" class="st1" width="3.6" height="3.6"/>
	
		<rect x="-45.1" y="24.9" transform="matrix(-1 -1.224647e-16 1.224647e-16 -1 -86.7395 53.3391)" class="st1" width="3.6" height="3.6"/>
	
		<rect x="-45.1" y="28.4" transform="matrix(-1 -1.224647e-16 1.224647e-16 -1 -86.7395 60.4502)" class="st1" width="3.6" height="3.6"/>
	
		<rect x="-48.7" y="28.4" transform="matrix(-1 -1.224647e-16 1.224647e-16 -1 -93.8506 60.4502)" class="st1" width="3.6" height="3.6"/>
	
		<rect x="-52.3" y="24.9" transform="matrix(-1 -1.224647e-16 1.224647e-16 -1 -100.9617 53.3391)" class="st1" width="3.6" height="3.6"/>
	
		<rect x="-55.8" y="21.3" transform="matrix(-1 -1.224647e-16 1.224647e-16 -1 -108.0729 46.228)" class="st1" width="3.6" height="3.6"/>
	
		<rect x="-59.4" y="17.8" transform="matrix(-1 -1.224647e-16 1.224647e-16 -1 -115.2137 39.1304)" class="st1" width="3.6" height="3.6"/>
	
		<rect x="-59.4" y="10.7" transform="matrix(-1 -1.224647e-16 1.224647e-16 -1 -115.2137 24.8946)" class="st1" width="3.6" height="3.6"/>
	
		<rect x="-62.9" y="14.2" transform="matrix(-1 -1.224647e-16 1.224647e-16 -1 -122.3316 32.0193)" class="st1" width="3.6" height="3.6"/>
	
		<rect x="-62.9" y="17.8" transform="matrix(-1 -1.224647e-16 1.224647e-16 -1 -122.3248 39.1304)" class="st1" width="3.6" height="3.6"/>
	
		<rect x="-59.4" y="21.3" transform="matrix(-1 -1.224647e-16 1.224647e-16 -1 -115.184 46.2381)" class="st1" width="3.6" height="3.6"/>
	
		<rect x="-55.8" y="24.9" transform="matrix(-1 -1.224647e-16 1.224647e-16 -1 -108.0729 53.3391)" class="st1" width="3.6" height="3.6"/>
	
		<rect x="-52.3" y="28.4" transform="matrix(-1 -1.224647e-16 1.224647e-16 -1 -100.9617 60.4502)" class="st1" width="3.6" height="3.6"/>
	
		<rect x="-52.3" y="3.6" transform="matrix(-1 -1.224647e-16 1.224647e-16 -1 -100.9915 10.6724)" class="st1" width="3.6" height="3.6"/>
	
		<rect x="-55.8" y="7.1" transform="matrix(-1 -1.224647e-16 1.224647e-16 -1 -108.1026 17.7835)" class="st1" width="3.6" height="3.6"/>
	
		<rect x="-45.2" y="0" transform="matrix(-1 -1.224647e-16 1.224647e-16 -1 -86.7828 3.5613)" class="st1" width="3.6" height="3.6"/>
	
		<rect x="-48.7" y="0" transform="matrix(-1 -1.224647e-16 1.224647e-16 -1 -93.8939 3.5613)" class="st1" width="3.6" height="3.6"/>
	
		<rect x="-62.9" y="10.7" transform="matrix(-1 -1.224647e-16 1.224647e-16 -1 -122.3248 24.9081)" class="st1" width="3.6" height="3.6"/>
	
		<rect x="-55.8" y="3.6" transform="matrix(-1 -1.224647e-16 1.224647e-16 -1 -108.1026 10.6724)" class="st1" width="3.6" height="3.6"/>
	
		<rect x="-59.4" y="7.1" transform="matrix(-1 -1.224647e-16 1.224647e-16 -1 -115.2137 17.7835)" class="st1" width="3.6" height="3.6"/>
	
		<rect x="-52.3" y="0" transform="matrix(-1 -1.224647e-16 1.224647e-16 -1 -100.9915 3.5613)" class="st1" width="3.6" height="3.6"/>
	
		<rect x="-45.2" y="3.6" transform="matrix(-1 -1.224647e-16 1.224647e-16 -1 -86.7828 10.6724)" class="st1" width="3.6" height="3.6"/>
	
		<rect x="-38.1" y="10.7" transform="matrix(-1 -1.224647e-16 1.224647e-16 -1 -72.5605 24.9081)" class="st1" width="3.6" height="3.6"/>
	
		<rect x="-41.6" y="10.7" transform="matrix(-1 -1.224647e-16 1.224647e-16 -1 -79.6716 24.9081)" class="st1" width="3.6" height="3.6"/>
	
		<rect x="-45.2" y="7.1" transform="matrix(-1 -1.224647e-16 1.224647e-16 -1 -86.7828 17.7835)" class="st1" width="3.6" height="3.6"/>
</g>
<g id="Calque_10" class="st0">
	
		<rect x="-45.2" y="17.8" transform="matrix(-1 -1.224647e-16 1.224647e-16 -1 -86.7932 39.1179)" class="st1" width="3.6" height="3.6"/>
	
		<rect x="-41.6" y="17.8" transform="matrix(-1 -1.224647e-16 1.224647e-16 -1 -79.6821 39.1304)" class="st1" width="3.6" height="3.6"/>
	
		<rect x="-45.2" y="21.3" transform="matrix(-1 -1.224647e-16 1.224647e-16 -1 -86.8148 46.2155)" class="st1" width="3.6" height="3.6"/>
	
		<rect x="-45.2" y="24.9" transform="matrix(-1 -1.224647e-16 1.224647e-16 -1 -86.7716 53.3266)" class="st1" width="3.6" height="3.6"/>
	
		<rect x="-45.2" y="28.4" transform="matrix(-1 -1.224647e-16 1.224647e-16 -1 -86.7716 60.4512)" class="st1" width="3.6" height="3.6"/>
	
		<rect x="-52.3" y="24.9" transform="matrix(-1 -1.224647e-16 1.224647e-16 -1 -100.9722 53.3401)" class="st1" width="3.6" height="3.6"/>
	
		<rect x="-52.3" y="21.3" transform="matrix(-1 -1.224647e-16 1.224647e-16 -1 -101.0371 46.229)" class="st1" width="3.6" height="3.6"/>
	
		<rect x="-55.8" y="21.3" transform="matrix(-1 -1.224647e-16 1.224647e-16 -1 -108.0833 46.229)" class="st1" width="3.6" height="3.6"/>
	
		<rect x="-55.8" y="17.8" transform="matrix(-1 -1.224647e-16 1.224647e-16 -1 -108.1266 39.1179)" class="st1" width="3.6" height="3.6"/>
	
		<rect x="-59.4" y="17.8" transform="matrix(-1 -1.224647e-16 1.224647e-16 -1 -115.1944 39.1179)" class="st1" width="3.6" height="3.6"/>
	
		<rect x="-62.9" y="14.2" transform="matrix(-1 -1.224647e-16 1.224647e-16 -1 -122.3353 32.0203)" class="st1" width="3.6" height="3.6"/>
	
		<rect x="-48.7" y="28.4" transform="matrix(-1 -1.224647e-16 1.224647e-16 -1 -93.8611 60.4512)" class="st1" width="3.6" height="3.6"/>
	
		<rect x="-48.7" y="24.9" transform="matrix(-1 -1.224647e-16 1.224647e-16 -1 -93.8611 53.3266)" class="st1" width="3.6" height="3.6"/>
	
		<rect x="-55.8" y="7.1" transform="matrix(-1 -1.224647e-16 1.224647e-16 -1 -108.0766 17.771)" class="st1" width="3.6" height="3.6"/>
	
		<rect x="-55.8" y="10.7" transform="matrix(-1 -1.224647e-16 1.224647e-16 -1 -108.0766 24.9081)" class="st1" width="3.6" height="3.6"/>
	
		<rect x="-59.4" y="10.7" transform="matrix(-1 -1.224647e-16 1.224647e-16 -1 -115.1877 24.8821)" class="st1" width="3.6" height="3.6"/>
	
		<rect x="-59.4" y="14.2" transform="matrix(-1 -1.224647e-16 1.224647e-16 -1 -115.1877 32.0203)" class="st1" width="3.6" height="3.6"/>
	
		<rect x="-52.3" y="3.6" transform="matrix(-1 -1.224647e-16 1.224647e-16 -1 -100.979 10.6599)" class="st1" width="3.6" height="3.6"/>
	
		<rect x="-52.3" y="7.1" transform="matrix(-1 -1.224647e-16 1.224647e-16 -1 -100.979 17.7845)" class="st1" width="3.6" height="3.6"/>
	
		<rect x="-34.5" y="10.7" transform="matrix(-1 -1.224647e-16 1.224647e-16 -1 -65.5031 24.9081)" class="st1" width="3.6" height="3.6"/>
	
		<rect x="-38.1" y="10.7" transform="matrix(-1 -1.224647e-16 1.224647e-16 -1 -72.5926 24.9081)" class="st1" width="3.6" height="3.6"/>
	
		<rect x="-34.5" y="14.2" transform="matrix(-1 -1.224647e-16 1.224647e-16 -1 -65.5031 32.0193)" class="st1" width="3.6" height="3.6"/>
	
		<rect x="-34.5" y="17.8" transform="matrix(-1 -1.224647e-16 1.224647e-16 -1 -65.5031 39.1304)" class="st1" width="3.6" height="3.6"/>
	
		<rect x="-38.1" y="17.8" transform="matrix(-1 -1.224647e-16 1.224647e-16 -1 -72.5926 39.1304)" class="st1" width="3.6" height="3.6"/>
	
		<rect x="-45.2" y="10.7" transform="matrix(-1 -1.224647e-16 1.224647e-16 -1 -86.7932 24.8821)" class="st1" width="3.6" height="3.6"/>
	
		<rect x="-45.2" y="7.1" transform="matrix(-1 -1.224647e-16 1.224647e-16 -1 -86.7716 17.7845)" class="st1" width="3.6" height="3.6"/>
	
		<rect x="-45.2" y="3.6" transform="matrix(-1 -1.224647e-16 1.224647e-16 -1 -86.7716 10.6599)" class="st1" width="3.6" height="3.6"/>
	
		<rect x="-45.2" y="0" transform="matrix(-1 -1.224647e-16 1.224647e-16 -1 -86.7716 3.5488)" class="st1" width="3.6" height="3.6"/>
	
		<rect x="-48.7" y="0" transform="matrix(-1 -1.224647e-16 1.224647e-16 -1 -93.8611 3.5488)" class="st1" width="3.6" height="3.6"/>
	
		<rect x="-48.7" y="3.6" transform="matrix(-1 -1.224647e-16 1.224647e-16 -1 -93.8611 10.6599)" class="st1" width="3.6" height="3.6"/>
	
		<rect x="-41.6" y="10.7" transform="matrix(-1 -1.224647e-16 1.224647e-16 -1 -79.6821 24.8821)" class="st1" width="3.6" height="3.6"/>
</g>
<g id="Calque_8" class="st0">
	<rect x="-63" y="3.6" class="st1" width="3.6" height="3.6"/>
	<rect x="-63" y="7.1" class="st1" width="3.6" height="3.6"/>
	<rect x="-63" y="10.7" class="st1" width="3.6" height="3.6"/>
	<rect x="-63" y="14.2" class="st1" width="3.6" height="3.6"/>
	<rect x="-59.4" class="st1" width="3.6" height="3.6"/>
	<rect x="-55.8" y="3.6" class="st1" width="3.6" height="3.6"/>
	<rect x="-52.3" y="7.1" class="st1" width="3.6" height="3.6"/>
	<rect x="-48.7" y="10.7" class="st1" width="3.6" height="3.6"/>
	<rect x="-45.2" y="14.2" class="st1" width="3.6" height="3.6"/>
	<rect x="-41.6" y="17.8" class="st1" width="3.6" height="3.6"/>
	<rect x="-38.1" y="21.3" class="st1" width="3.6" height="3.6"/>
	<rect x="-38.1" y="24.9" class="st1" width="3.6" height="3.6"/>
	<rect x="-41.6" y="24.9" class="st1" width="3.6" height="3.6"/>
	<rect x="-45.2" y="24.9" class="st1" width="3.6" height="3.6"/>
	<rect x="-45.2" y="28.4" class="st1" width="3.6" height="3.6"/>
	<rect x="-41.6" y="32" class="st1" width="3.6" height="3.6"/>
	<rect x="-41.6" y="35.6" class="st1" width="3.6" height="3.6"/>
	<rect x="-63" y="17.8" class="st1" width="3.6" height="3.6"/>
	<rect x="-63" y="21.3" class="st1" width="3.6" height="3.6"/>
	<rect x="-63" y="24.9" class="st1" width="3.6" height="3.6"/>
	<rect x="-63" y="28.4" class="st1" width="3.6" height="3.6"/>
	<rect x="-63" y="32" class="st1" width="3.6" height="3.6"/>
	<rect x="-63" y="35.6" class="st1" width="3.6" height="3.6"/>
	<rect x="-59.4" y="35.6" class="st1" width="3.6" height="3.6"/>
	<rect x="-55.8" y="32" class="st1" width="3.6" height="3.6"/>
	<rect x="-52.3" y="28.4" class="st1" width="3.6" height="3.6"/>
	<rect x="-52.3" y="32" class="st1" width="3.6" height="3.6"/>
	<rect x="-48.7" y="35.4" class="st1" width="3.6" height="3.6"/>
	<rect x="-48.7" y="38.9" class="st1" width="3.6" height="3.6"/>
	<rect x="-45.2" y="38.9" class="st1" width="3.6" height="3.6"/>
</g>
<g id="Calque_8_-_copie" class="st0">
	<rect x="-63" y="3.6" class="st1" width="3.6" height="3.6"/>
	<rect x="-63" y="7.1" class="st1" width="3.6" height="3.6"/>
	<rect x="-63" y="10.7" class="st1" width="3.6" height="3.6"/>
	<rect x="-63" y="14.2" class="st1" width="3.6" height="3.6"/>
	<rect x="-59.4" class="st1" width="3.6" height="3.6"/>
	<rect x="-55.8" y="3.6" class="st1" width="3.6" height="3.6"/>
	<rect x="-52.3" y="7.1" class="st1" width="3.6" height="3.6"/>
	<rect x="-48.7" y="10.7" class="st1" width="3.6" height="3.6"/>
	<rect x="-45.2" y="14.2" class="st1" width="3.6" height="3.6"/>
	<rect x="-41.6" y="17.8" class="st1" width="3.6" height="3.6"/>
	<rect x="-38.1" y="21.3" class="st1" width="3.6" height="3.6"/>
	<rect x="-34.5" y="24.9" class="st1" width="3.6" height="3.6"/>
	<rect x="-31" y="28.4" class="st1" width="3.6" height="3.6"/>
	<rect x="-27.4" y="32" class="st1" width="3.6" height="3.6"/>
	<rect x="-31" y="32" class="st1" width="3.6" height="3.6"/>
	<rect x="-34.5" y="32" class="st1" width="3.6" height="3.6"/>
	<rect x="-38.1" y="32" class="st1" width="3.6" height="3.6"/>
	<rect x="-63" y="17.8" class="st1" width="3.6" height="3.6"/>
	<rect x="-63" y="21.3" class="st1" width="3.6" height="3.6"/>
	<rect x="-63" y="24.9" class="st1" width="3.6" height="3.6"/>
	<rect x="-63" y="28.4" class="st1" width="3.6" height="3.6"/>
	<rect x="-63" y="32" class="st1" width="3.6" height="3.6"/>
	<rect x="-63" y="35.6" class="st1" width="3.6" height="3.6"/>
	<rect x="-63" y="39.1" class="st1" width="3.6" height="3.6"/>
	<rect x="-63" y="42.7" class="st1" width="3.6" height="3.6"/>
	<rect x="-59.4" y="39.1" class="st1" width="3.6" height="3.6"/>
	<rect x="-55.8" y="35.6" class="st1" width="3.6" height="3.6"/>
	<rect x="-52.3" y="32" class="st1" width="3.6" height="3.6"/>
	<rect x="-52.3" y="35.6" class="st1" width="3.6" height="3.6"/>
	<rect x="-41.6" y="32" class="st1" width="3.6" height="3.6"/>
	<rect x="-45.2" y="32" class="st1" width="3.6" height="3.6"/>
	<rect x="-48.7" y="39.1" class="st1" width="3.6" height="3.6"/>
	<rect x="-48.7" y="42.7" class="st1" width="3.6" height="3.6"/>
	<rect x="-41.6" y="35.6" class="st1" width="3.6" height="3.6"/>
	<rect x="-41.6" y="39.1" class="st1" width="3.6" height="3.6"/>
	<rect x="-45.2" y="46.2" class="st1" width="3.6" height="3.6"/>
	<rect x="-41.6" y="42.7" class="st1" width="3.6" height="3.6"/>
</g>
<g id="Calque_2" class="st0">
	
		<rect x="-63" y="7.1" transform="matrix(-1.836970e-16 1 -1 -1.836970e-16 -52.2929 70.0707)" class="st1" width="3.6" height="3.6"/>
	
		<rect x="-59.4" y="7.1" transform="matrix(-1.836970e-16 1 -1 -1.836970e-16 -48.7374 66.5152)" class="st1" width="3.6" height="3.6"/>
	
		<rect x="-63" y="10.7" transform="matrix(-1.836970e-16 1 -1 -1.836970e-16 -48.7374 73.6263)" class="st1" width="3.6" height="3.6"/>
	
		<rect x="-63" y="14.2" transform="matrix(-1.836970e-16 1 -1 -1.836970e-16 -45.1818 77.1818)" class="st1" width="3.6" height="3.6"/>
	
		<rect x="-63" y="17.8" transform="matrix(-1.836970e-16 1 -1 -1.836970e-16 -41.6263 80.7374)" class="st1" width="3.6" height="3.6"/>
	
		<rect x="-63" y="21.3" transform="matrix(-1.836970e-16 1 -1 -1.836970e-16 -38.0707 84.2929)" class="st1" width="3.6" height="3.6"/>
	
		<rect x="-59.4" y="21.3" transform="matrix(-1.836970e-16 1 -1 -1.836970e-16 -34.5152 80.7374)" class="st1" width="3.6" height="3.6"/>
	
		<rect x="-48.7" y="0" transform="matrix(-1.836970e-16 1 -1 -1.836970e-16 -45.1818 48.7374)" class="st1" width="3.6" height="3.6"/>
	
		<rect x="-52.3" y="0" transform="matrix(-1.836970e-16 1 -1 -1.836970e-16 -48.7374 52.2929)" class="st1" width="3.6" height="3.6"/>
	
		<rect x="-55.8" y="3.6" transform="matrix(-1.836970e-16 1 -1 -1.836970e-16 -48.7374 59.404)" class="st1" width="3.6" height="3.6"/>
	
		<rect x="-48.7" y="3.6" transform="matrix(-1.836970e-16 1 -1 -1.836970e-16 -41.6263 52.2929)" class="st1" width="3.6" height="3.6"/>
	
		<rect x="-48.7" y="7.1" transform="matrix(-1.836970e-16 1 -1 -1.836970e-16 -38.0707 55.8485)" class="st1" width="3.6" height="3.6"/>
	
		<rect x="-48.7" y="10.7" transform="matrix(-1.836970e-16 1 -1 -1.836970e-16 -34.5152 59.404)" class="st1" width="3.6" height="3.6"/>
	
		<rect x="-48.7" y="14.2" transform="matrix(-1.836970e-16 1 -1 -1.836970e-16 -30.9596 62.9596)" class="st1" width="3.6" height="3.6"/>
	
		<rect x="-48.7" y="17.8" transform="matrix(-1.836970e-16 1 -1 -1.836970e-16 -27.404 66.5152)" class="st1" width="3.6" height="3.6"/>
	
		<rect x="-48.7" y="21.3" transform="matrix(-1.836970e-16 1 -1 -1.836970e-16 -23.8485 70.0707)" class="st1" width="3.6" height="3.6"/>
	
		<rect x="-48.7" y="24.9" transform="matrix(-1.836970e-16 1 -1 -1.836970e-16 -20.2929 73.6263)" class="st1" width="3.6" height="3.6"/>
	
		<rect x="-48.7" y="28.4" transform="matrix(-1.836970e-16 1 -1 -1.836970e-16 -16.7374 77.1818)" class="st1" width="3.6" height="3.6"/>
	
		<rect x="-52.3" y="28.4" transform="matrix(-1.836970e-16 1 -1 -1.836970e-16 -20.2929 80.7374)" class="st1" width="3.6" height="3.6"/>
	
		<rect x="-55.8" y="24.9" transform="matrix(-1.836970e-16 1 -1 -1.836970e-16 -27.404 80.7374)" class="st1" width="3.6" height="3.6"/>
</g>
<g id="Calque_3" class="st0">
	
		<rect x="-41.6" y="14.2" transform="matrix(-1.836970e-16 1 -1 -1.836970e-16 -23.8485 55.8485)" class="st1" width="3.6" height="3.6"/>
	
		<rect x="-41.6" y="17.8" transform="matrix(-1.836970e-16 1 -1 -1.836970e-16 -20.2929 59.404)" class="st1" width="3.6" height="3.6"/>
	
		<rect x="-41.6" y="10.7" transform="matrix(-1.836970e-16 1 -1 -1.836970e-16 -27.404 52.2929)" class="st1" width="3.6" height="3.6"/>
	
		<rect x="-34.5" y="14.2" transform="matrix(-1.836970e-16 1 -1 -1.836970e-16 -16.7374 48.7374)" class="st1" width="3.6" height="3.6"/>
	
		<rect x="-34.5" y="17.8" transform="matrix(-1.836970e-16 1 -1 -1.836970e-16 -13.1818 52.2929)" class="st1" width="3.6" height="3.6"/>
	
		<rect x="-34.5" y="21.3" transform="matrix(-1.836970e-16 1 -1 -1.836970e-16 -9.6263 55.8485)" class="st1" width="3.6" height="3.6"/>
	
		<rect x="-34.5" y="10.7" transform="matrix(-1.836970e-16 1 -1 -1.836970e-16 -20.2929 45.1818)" class="st1" width="3.6" height="3.6"/>
	
		<rect x="-34.5" y="7.1" transform="matrix(-1.836970e-16 1 -1 -1.836970e-16 -23.8485 41.6263)" class="st1" width="3.6" height="3.6"/>
	
		<rect x="-34.5" y="3.6" transform="matrix(-1.836970e-16 1 -1 -1.836970e-16 -27.404 38.0707)" class="st1" width="3.6" height="3.6"/>
	
		<rect x="-34.5" y="24.9" transform="matrix(-1.836970e-16 1 -1 -1.836970e-16 -6.0707 59.404)" class="st1" width="3.6" height="3.6"/>
</g>
<g id="Calque_9" class="st0">
	
		<rect x="-41.6" y="10.7" transform="matrix(-1.836970e-16 1 -1 -1.836970e-16 -27.404 52.2929)" class="st1" width="3.6" height="3.6"/>
	
		<rect x="-38.1" y="14.2" transform="matrix(-1.836970e-16 1 -1 -1.836970e-16 -20.2929 52.2929)" class="st1" width="3.6" height="3.6"/>
	
		<rect x="-34.5" y="17.8" transform="matrix(-1.836970e-16 1 -1 -1.836970e-16 -13.1818 52.2929)" class="st1" width="3.6" height="3.6"/>
	
		<rect x="-41.6" y="17.8" transform="matrix(-1.836970e-16 1 -1 -1.836970e-16 -20.2929 59.404)" class="st1" width="3.6" height="3.6"/>
	
		<rect x="-34.5" y="10.7" transform="matrix(-1.836970e-16 1 -1 -1.836970e-16 -20.2929 45.1818)" class="st1" width="3.6" height="3.6"/>
</g>
<g id="Calque_4" class="st0">
	<polygon class="st2" points="-48.7,10.7 -45.2,10.7 -45.2,7.1 -48.7,7.1 -52.3,7.1 -55.8,7.1 -55.8,10.7 -52.3,10.7 	"/>
	<polygon class="st2" points="-45.2,14.2 -48.7,14.2 -52.3,14.2 -55.8,14.2 -55.8,17.8 -52.3,17.8 -48.7,17.8 -45.2,17.8 
		-41.6,17.8 -38.1,17.8 -38.1,14.2 -41.6,14.2 	"/>
	<path class="st2" d="M-33.3,7.1h-1.2V3.6h-3.6V0h-3.6h-3.6h-3.6h-3.6h-3.6h-3.6H-63v3.6v3.6v3.6v3.6v3.6v3.6v3.6v3.6V32h3.6h3.6
		h3.6h3.6h3.6h3.6h3.6h3.6h3.6v-3.6v-3.6v-3.6v-3.6v-3.6v-3.6V7.1h-1.2H-33.3z M-34.5,28.4h-3.6h-3.6h-3.6h-3.6h-3.6h-3.6h-3.6v-3.6
		v-3.6v-3.6v-3.6v-3.6V7.1V3.6h3.6h3.6h3.6h3.6h3.6h0v3.6h3.6v3.6h3.6"/>
</g>
<g id="Calque_17" class="st0">
	<g class="st1">
		<path class="st3" d="M-32.1,7.1h-1.2h-1.2V3.6h-3.6V0h-3.6h-3.6h-3.6h-3.6h-3.6h-3.6v32h3.6h3.6h3.6h3.6h3.6h3.6h3.6h3.6v-3.6
			v-3.6v-3.6v-3.6v-3.6v-3.6V7.1H-32.1z M-34.5,28.4h-3.6h-3.6h-3.6h-3.6h-3.6h-3.6v-3.5v-7.1v-3.6v-3.6V7.1V5.5v-2h3.6h3.6h3.6h3.6
			h0v3.6h3.6v3.6h3.6V28.4z"/>
		<polygon class="st3" points="-48.7,10.7 -45.2,10.7 -45.2,7.1 -48.7,7.1 -52.3,7.1 -52.3,7.1 -52.3,10.7 -52.3,10.7 		"/>
		<polygon class="st3" points="-45.2,14.2 -48.7,14.2 -52.3,14.2 -52.3,14.2 -52.3,17.8 -52.3,17.8 -48.7,17.8 -45.2,17.8 
			-41.6,17.8 -38.1,17.8 -38.1,14.2 -41.6,14.2 		"/>
	</g>
</g>
<g id="Calque_5" class="st0">
	<rect x="-63" y="28.4" class="st1" width="3.6" height="3.6"/>
	<rect x="-63" y="24.9" class="st1" width="3.6" height="3.6"/>
	<rect x="-63" y="21.3" class="st1" width="3.6" height="3.6"/>
	<rect x="-63" y="17.8" class="st1" width="3.6" height="3.6"/>
	<rect x="-63" y="14.2" class="st1" width="3.6" height="3.6"/>
	<rect x="-63" y="10.7" class="st1" width="3.6" height="3.6"/>
	<rect x="-34.5" y="24.9" class="st1" width="3.6" height="3.6"/>
	<rect x="-34.5" y="21.3" class="st1" width="3.6" height="3.6"/>
	<rect x="-34.5" y="17.8" class="st1" width="3.6" height="3.6"/>
	<rect x="-41.6" y="17.8" class="st1" width="3.6" height="3.6"/>
	<rect x="-55.8" y="17.8" class="st1" width="3.6" height="3.6"/>
	<rect x="-34.5" y="14.2" class="st1" width="3.6" height="3.6"/>
	<rect x="-34.5" y="10.7" class="st1" width="3.6" height="3.6"/>
	<rect x="-59.4" y="28.4" class="st1" width="3.6" height="3.6"/>
	<rect x="-55.8" y="28.4" class="st1" width="3.6" height="3.6"/>
	<rect x="-52.3" y="28.4" class="st1" width="3.6" height="3.6"/>
	<rect x="-48.7" y="28.4" class="st1" width="3.6" height="3.6"/>
	<rect x="-45.2" y="28.4" class="st1" width="3.6" height="3.6"/>
	<rect x="-41.6" y="28.4" class="st1" width="3.6" height="3.6"/>
	<rect x="-38.1" y="28.4" class="st1" width="3.6" height="3.6"/>
	<rect x="-34.5" y="28.4" class="st1" width="3.6" height="3.6"/>
	<rect x="-63" y="7.1" class="st1" width="3.6" height="3.6"/>
	<rect x="-59.4" y="7.1" class="st1" width="3.6" height="3.6"/>
	<rect x="-55.8" y="7.1" class="st1" width="3.6" height="3.6"/>
	<rect x="-52.3" y="7.1" class="st1" width="3.6" height="3.6"/>
	<rect x="-48.7" y="7.1" class="st1" width="3.6" height="3.6"/>
	<rect x="-59.4" y="3.6" class="st1" width="3.6" height="3.6"/>
	<rect x="-59.4" class="st1" width="3.6" height="3.6"/>
	<rect x="-45.2" y="7.1" class="st1" width="3.6" height="3.6"/>
	<rect x="-41.6" y="7.1" class="st1" width="3.6" height="3.6"/>
	<rect x="-38.1" y="7.1" class="st1" width="3.6" height="3.6"/>
	<rect x="-34.5" y="7.1" class="st1" width="3.6" height="3.6"/>
</g>
<g id="Calque_15" class="st0">
</g>
<g id="Calque_14" class="st0">
</g>
<g id="Calque_13" class="st0">
	<g class="st1">
		<polygon class="st4" points="-62,3.2 -61.7,6.6 -55.7,12.7 -55.9,20.3 -51,24.8 -45.2,25.3 -41.7,30.2 -39.6,28.7 -31,20 -36,15 
			-35.7,9 -38,7.2 -38,4.5 -40.2,3.2 -41.6,1 -46,1 -48,3 -54,5 -55.9,3 -57.9,1 -60.4,1.4 		"/>
		<rect x="-60.9" y="6" class="st5" width="2" height="2"/>
		<rect x="-57" y="14" class="st5" width="2" height="2"/>
		<rect x="-58.9" y="8" class="st5" width="2" height="2"/>
		<rect x="-56.9" y="10" class="st5" width="2" height="2"/>
		<rect x="-54.9" y="12" class="st5" width="2" height="2"/>
		<rect x="-56.9" y="16" class="st5" width="2" height="2"/>
		<rect x="-57" y="18" class="st5" width="2" height="2"/>
		<rect x="-55" y="20" class="st5" width="2" height="2"/>
		<rect x="-53" y="22" class="st5" width="2" height="2"/>
		<rect x="-51" y="22" class="st5" width="2" height="2"/>
		<rect x="-49" y="22" class="st5" width="2" height="2"/>
		<rect x="-47" y="22" class="st5" width="2" height="2"/>
		<rect x="-45" y="26" class="st5" width="2" height="2"/>
		<rect x="-45" y="28" class="st5" width="2" height="2"/>
		<rect x="-43" y="28" class="st5" width="2" height="2"/>
		<rect x="-60.9" width="2" height="2"/>
		<rect x="-58.9" width="2" height="2"/>
		<rect x="-56.9" y="2" width="2" height="2"/>
		<rect x="-55" y="4" width="2" height="2"/>
		<rect x="-53" y="4" width="2" height="2"/>
		<rect x="-51" y="6" width="2" height="2"/>
		<rect x="-47" y="4" width="2" height="2"/>
		<rect x="-43" y="9" width="2" height="2"/>
		<rect x="-41" y="11" width="2" height="2"/>
		<rect x="-47" y="11" width="2" height="2"/>
		<rect x="-45" y="13" width="2" height="2"/>
		<rect x="-51" y="2" width="2" height="2"/>
		<rect x="-49" y="2" width="2" height="2"/>
		<rect x="-47" y="0" width="2" height="2"/>
		<rect x="-45" y="0" width="2" height="2"/>
		<rect x="-43" y="0" width="2" height="2"/>
		<rect x="-41" y="2" width="2" height="2"/>
		<rect x="-39" y="4" width="2" height="2"/>
		<rect x="-39" y="6" width="2" height="2"/>
		<rect x="-37" y="8" width="2" height="2"/>
		<rect x="-37" y="10" width="2" height="2"/>
		<rect x="-37" y="12" width="2" height="2"/>
		<rect x="-37" y="14" width="2" height="2"/>
		<rect x="-39" y="16" width="2" height="2"/>
		<rect x="-35" y="16" width="2" height="2"/>
		<rect x="-33" y="18" width="2" height="2"/>
		<rect x="-33" y="20" width="2" height="2"/>
		<rect x="-35" y="22" width="2" height="2"/>
		<rect x="-37" y="24" width="2" height="2"/>
		<rect x="-39" y="26" width="2" height="2"/>
		<rect x="-41" y="28" width="2" height="2"/>
		<rect x="-43" y="30" width="2" height="2"/>
		<rect x="-45" y="30" width="2" height="2"/>
		<rect x="-47" y="28" width="2" height="2"/>
		<rect x="-47" y="26" width="2" height="2"/>
		<rect x="-47" y="24" width="2" height="2"/>
		<rect x="-47" y="24" width="2" height="2"/>
		<rect x="-45" y="24" width="2" height="2"/>
		<rect x="-43" y="22" width="2" height="2"/>
		<rect x="-49" y="24" width="2" height="2"/>
		<rect x="-51" y="24" width="2" height="2"/>
		<rect x="-53" y="24" width="2" height="2"/>
		<rect x="-55" y="22" width="2" height="2"/>
		<rect x="-57" y="20" width="2" height="2"/>
		<rect x="-59" y="18" width="2" height="2"/>
		<rect x="-59" y="16" width="2" height="2"/>
		<rect x="-59" y="14" width="2" height="2"/>
		<rect x="-57" y="12" width="2" height="2"/>
		<rect x="-55" y="14" width="2" height="2"/>
		<rect x="-59" y="12" width="2" height="2"/>
		<rect x="-59" y="10" width="2" height="2"/>
		<rect x="-60.9" y="8" width="2" height="2"/>
		<rect x="-63" y="6" width="2" height="2"/>
		<rect x="-63" y="4" width="2" height="2"/>
		<rect x="-63" y="2" width="2" height="2"/>
	</g>
</g>
<g id="Calque_12" class="st0">
	<image style="display:inline;overflow:visible;" width="32" height="32" xlink:href="../cursor.png" >
	</image>
</g>
<g id="Calque_28" class="st0">
	<polygon class="st6" points="1.3,4 7.1,12.7 7.1,18.1 12.3,24.2 22.7,28 30.7,20 30.7,17.3 28,14.7 28,9.3 22.7,4 17.3,4 12,9.3 
		4,1.3 	"/>
</g>
<g id="Calque_27" class="st0">
	<g class="st1">
		<rect x="24" y="5.3" width="2.7" height="2.7"/>
		<polygon points="26.7,13.3 26.7,16 29.3,16 29.3,13.3 29.3,10.7 29.3,8 26.7,8 26.7,10.7 		"/>
		<polygon points="29.3,16 29.3,18.7 29.3,21.3 32,21.3 32,18.7 32,16 		"/>
		<rect x="26.7" y="21.3" width="2.7" height="2.7"/>
		<rect x="24" y="24" width="2.7" height="2.7"/>
		<rect x="21.3" y="26.7" width="2.7" height="2.7"/>
		<rect x="18.7" y="29.3" width="2.7" height="2.7"/>
		<polygon points="18.7,24 16,24 13.3,24 10.7,24 10.7,26.7 13.3,26.7 16,26.7 16,29.3 18.7,29.3 18.7,26.7 		"/>
		<rect x="18.7" y="21.3" width="2.7" height="2.7"/>
		<rect x="8" y="21.3" width="2.7" height="2.7"/>
		<rect x="5.3" y="18.7" width="2.7" height="2.7"/>
		<rect x="2.7" y="16" width="2.7" height="2.7"/>
		<polygon points="10.7,16 10.7,18.5 13.3,18.5 13.3,15.8 10.7,15.8 10.7,13.3 8,13.3 8,10.7 5.3,10.7 5.3,13.3 5.3,16 8,16 		"/>
		<rect x="2.7" y="8" width="2.7" height="2.7"/>
		<rect x="24" y="16" width="2.7" height="2.7"/>
		<polygon points="21.3,5.3 24,5.3 24,2.7 21.3,2.7 18.7,2.7 16,2.7 16,5.3 18.7,5.3 		"/>
		<rect x="2.7" width="2.7" height="2.7"/>
		<rect x="5.3" y="2.7" width="2.7" height="2.7"/>
		<rect x="8" y="5.3" width="2.7" height="2.7"/>
		<rect x="13.3" y="5.3" width="2.7" height="2.7"/>
		<rect x="10.7" y="8" width="2.7" height="2.7"/>
		<polygon points="2.7,2.7 0,2.7 0,5.3 0,8 2.7,8 2.7,5.3 		"/>
	</g>
</g>
<g id="Calque_29" class="st0">
	<g class="st1">
		<rect x="2.7" y="5.3" class="st7" width="2.7" height="2.7"/>
		<rect x="5.3" y="8" class="st7" width="2.7" height="2.7"/>
		<rect x="8" y="10.7" class="st7" width="2.7" height="2.7"/>
		<rect x="5.3" y="16" class="st7" width="2.7" height="2.7"/>
		<rect x="8" y="18.7" class="st7" width="2.7" height="2.7"/>
		<polygon class="st7" points="16,21.3 13.3,21.3 10.7,21.3 10.7,24 13.3,24 16,24 18.7,24 18.7,21.3 		"/>
		<polygon class="st7" points="18.7,24 18.7,26.7 18.7,29.3 21.3,29.3 21.3,26.7 21.3,24 		"/>
	</g>
</g>
<g id="Calque_19">
	<g>
		<polygon points="29.3,0 26.7,0 24,0 21.3,0 18.7,0 16,0 16,2.7 18.7,2.7 21.3,2.7 24,2.7 26.7,2.7 26.7,5.3 29.3,5.3 29.3,8 
			29.3,10.7 29.3,13.3 29.3,16 32,16 32,13.3 32,10.7 32,8 32,5.3 32,2.7 32,0 		"/>
		<rect x="24" y="5.3" width="2.7" height="2.7"/>
		<rect x="21.3" y="8" width="2.7" height="2.7"/>
		<rect x="18.7" y="10.7" width="2.7" height="2.7"/>
		<rect x="16" y="13.3" width="2.7" height="2.7"/>
		<rect x="13.3" y="16" width="2.7" height="2.7"/>
		<rect x="10.7" y="18.7" width="2.7" height="2.7"/>
		<rect x="8" y="21.3" width="2.7" height="2.7"/>
		<rect x="5.3" y="24" width="2.7" height="2.7"/>
		<polygon points="29.3,26.7 29.3,29.3 26.7,29.3 24,29.3 21.3,29.3 18.7,29.3 16,29.3 13.3,29.3 10.7,29.3 8,29.3 5.3,29.3 
			2.7,29.3 2.7,26.7 2.7,24 2.7,21.3 2.7,18.7 2.7,16 2.7,13.3 2.7,10.7 2.7,8 2.7,5.3 2.7,2.7 5.3,2.7 8,2.7 8,0 5.3,0 2.7,0 0,0 
			0,2.7 0,5.3 0,8 0,10.7 0,13.3 0,16 0,18.7 0,21.3 0,24 0,26.7 0,29.3 0,32 2.7,32 5.3,32 8,32 10.7,32 13.3,32 16,32 18.7,32 
			21.3,32 24,32 26.7,32 29.3,32 32,32 32,29.3 32,26.7 32,24 29.3,24 		"/>
	</g>
</g>
<g id="Calque_20" class="st0">
	<rect class="st1" width="2.7" height="2.7"/>
	<rect y="2.7" class="st1" width="2.7" height="2.7"/>
	<rect y="5.3" class="st1" width="2.7" height="2.7"/>
	<rect x="5.2" y="8" class="st1" width="2.7" height="2.7"/>
	<rect x="7.8" y="8" class="st1" width="2.7" height="2.7"/>
	<rect x="10.5" y="8" class="st1" width="2.7" height="2.7"/>
	<rect x="13.2" y="8" class="st1" width="2.7" height="2.7"/>
	<rect x="5.2" y="18.7" class="st1" width="2.7" height="2.7"/>
	<rect x="7.8" y="18.7" class="st1" width="2.7" height="2.7"/>
	<rect x="10.5" y="18.7" class="st1" width="2.7" height="2.7"/>
	<rect x="13.2" y="18.7" class="st1" width="2.7" height="2.7"/>
	<rect x="15.8" y="18.7" class="st1" width="2.7" height="2.7"/>
	<rect x="5.2" y="13.3" class="st1" width="2.7" height="2.7"/>
	<rect x="7.8" y="13.3" class="st1" width="2.7" height="2.7"/>
	<rect x="10.5" y="13.3" class="st1" width="2.7" height="2.7"/>
	<rect x="13.2" y="13.3" class="st1" width="2.7" height="2.7"/>
	<rect x="15.8" y="13.3" class="st1" width="2.7" height="2.7"/>
	<rect x="18.5" y="13.3" class="st1" width="2.7" height="2.7"/>
	<rect x="21.2" y="13.3" class="st1" width="2.7" height="2.7"/>
	<rect y="8" class="st1" width="2.7" height="2.7"/>
	<rect y="10.7" class="st1" width="2.7" height="2.7"/>
	<rect y="13.3" class="st1" width="2.7" height="2.7"/>
	<rect y="16" class="st1" width="2.7" height="2.7"/>
	<rect y="18.7" class="st1" width="2.7" height="2.7"/>
	<rect y="21.3" class="st1" width="2.7" height="2.7"/>
	<rect y="24" class="st1" width="2.7" height="2.7"/>
	<rect y="26.7" class="st1" width="2.7" height="2.7"/>
	<rect y="29.3" class="st1" width="2.7" height="2.7"/>
	<rect x="29.3" y="8" class="st1" width="2.7" height="2.7"/>
	<rect x="29.3" y="10.7" class="st1" width="2.7" height="2.7"/>
	<rect x="29.3" y="13.3" class="st1" width="2.7" height="2.7"/>
	<rect x="29.3" y="16" class="st1" width="2.7" height="2.7"/>
	<rect x="29.3" y="18.7" class="st1" width="2.7" height="2.7"/>
	<rect x="29.3" y="21.3" class="st1" width="2.7" height="2.7"/>
	<rect x="29.3" y="24" class="st1" width="2.7" height="2.7"/>
	<rect x="29.3" y="26.7" class="st1" width="2.7" height="2.7"/>
	
		<rect x="26.7" y="29.3" transform="matrix(-1.836970e-16 1 -1 -1.836970e-16 58.6667 2.6667)" class="st1" width="2.7" height="2.7"/>
	<rect x="24" y="29.3" transform="matrix(-1.836970e-16 1 -1 -1.836970e-16 56 5.3333)" class="st1" width="2.7" height="2.7"/>
	<rect x="21.3" y="29.3" transform="matrix(-1.836970e-16 1 -1 -1.836970e-16 53.3333 8)" class="st1" width="2.7" height="2.7"/>
	
		<rect x="18.7" y="29.3" transform="matrix(-1.836970e-16 1 -1 -1.836970e-16 50.6667 10.6667)" class="st1" width="2.7" height="2.7"/>
	<rect x="16" y="29.3" transform="matrix(-1.836970e-16 1 -1 -1.836970e-16 48 13.3333)" class="st1" width="2.7" height="2.7"/>
	<rect x="13.3" y="29.3" transform="matrix(-1.836970e-16 1 -1 -1.836970e-16 45.3333 16)" class="st1" width="2.7" height="2.7"/>
	
		<rect x="10.7" y="29.3" transform="matrix(-1.836970e-16 1 -1 -1.836970e-16 42.6667 18.6667)" class="st1" width="2.7" height="2.7"/>
	<rect x="8" y="29.3" transform="matrix(-1.836970e-16 1 -1 -1.836970e-16 40 21.3333)" class="st1" width="2.7" height="2.7"/>
	<rect x="5.3" y="29.3" transform="matrix(-1.836970e-16 1 -1 -1.836970e-16 37.3333 24)" class="st1" width="2.7" height="2.7"/>
	
		<rect x="2.7" y="29.3" transform="matrix(-1.836970e-16 1 -1 -1.836970e-16 34.6667 26.6667)" class="st1" width="2.7" height="2.7"/>
	<rect x="21.3" transform="matrix(-1.836970e-16 1 -1 -1.836970e-16 24 -21.3333)" class="st1" width="2.7" height="2.7"/>
	
		<rect x="24" y="2.7" transform="matrix(-1.836970e-16 1 -1 -1.836970e-16 29.3333 -21.3333)" class="st1" width="2.7" height="2.7"/>
	
		<rect x="26.7" y="5.3" transform="matrix(-1.836970e-16 1 -1 -1.836970e-16 34.6667 -21.3333)" class="st1" width="2.7" height="2.7"/>
	<rect x="18.7" transform="matrix(-1.836970e-16 1 -1 -1.836970e-16 21.3333 -18.6667)" class="st1" width="2.7" height="2.7"/>
	<rect x="16" y="0" transform="matrix(-1.836970e-16 1 -1 -1.836970e-16 18.6667 -16)" class="st1" width="2.7" height="2.7"/>
	<rect x="13.3" transform="matrix(-1.836970e-16 1 -1 -1.836970e-16 16 -13.3333)" class="st1" width="2.7" height="2.7"/>
	<rect x="10.7" transform="matrix(-1.836970e-16 1 -1 -1.836970e-16 13.3333 -10.6667)" class="st1" width="2.7" height="2.7"/>
	<rect x="8" transform="matrix(-1.836970e-16 1 -1 -1.836970e-16 10.6667 -8)" class="st1" width="2.7" height="2.7"/>
	<rect x="5.3" transform="matrix(-1.836970e-16 1 -1 -1.836970e-16 8 -5.3333)" class="st1" width="2.7" height="2.7"/>
	<rect x="2.7" transform="matrix(-1.836970e-16 1 -1 -1.836970e-16 5.3333 -2.6667)" class="st1" width="2.7" height="2.7"/>
	<rect x="29.3" y="29.3" class="st1" width="2.7" height="2.7"/>
</g>
<g id="Calque_21" class="st0">
	<rect y="16" class="st1" width="2.7" height="2.7"/>
	<rect y="18.7" class="st1" width="2.7" height="2.7"/>
	<rect y="21.3" class="st1" width="2.7" height="2.7"/>
	<rect y="24" class="st1" width="2.7" height="2.7"/>
	<rect y="26.7" class="st1" width="2.7" height="2.7"/>
	<rect x="29.3" y="16" class="st1" width="2.7" height="2.7"/>
	<rect x="29.3" y="18.7" class="st1" width="2.7" height="2.7"/>
	<rect x="29.3" y="21.3" class="st1" width="2.7" height="2.7"/>
	<rect x="29.3" y="24" class="st1" width="2.7" height="2.7"/>
	<rect x="29.3" y="26.7" class="st1" width="2.7" height="2.7"/>
	
		<rect x="29.3" y="29.3" transform="matrix(-1.836970e-16 1 -1 -1.836970e-16 61.3333 1.826095e-12)" class="st1" width="2.7" height="2.7"/>
	<rect x="24" y="29.3" transform="matrix(-1.836970e-16 1 -1 -1.836970e-16 56 5.3333)" class="st1" width="2.7" height="2.7"/>
	
		<rect x="26.7" y="29.3" transform="matrix(-1.836970e-16 1 -1 -1.836970e-16 58.6667 2.6667)" class="st1" width="2.7" height="2.7"/>
	<rect x="21.3" y="29.3" transform="matrix(-1.836970e-16 1 -1 -1.836970e-16 53.3333 8)" class="st1" width="2.7" height="2.7"/>
	
		<rect x="18.7" y="29.3" transform="matrix(-1.836970e-16 1 -1 -1.836970e-16 50.6667 10.6667)" class="st1" width="2.7" height="2.7"/>
	<rect x="16" y="29.3" transform="matrix(-1.836970e-16 1 -1 -1.836970e-16 48 13.3333)" class="st1" width="2.7" height="2.7"/>
	<rect x="13.3" y="29.3" transform="matrix(-1.836970e-16 1 -1 -1.836970e-16 45.3333 16)" class="st1" width="2.7" height="2.7"/>
	<rect x="18.7" y="26.7" transform="matrix(-1.836970e-16 1 -1 -1.836970e-16 48 8)" class="st1" width="2.7" height="2.7"/>
	
		<rect x="18.7" y="24" transform="matrix(-1.836970e-16 1 -1 -1.836970e-16 45.3333 5.3333)" class="st1" width="2.7" height="2.7"/>
	
		<rect x="18.7" y="21.3" transform="matrix(-1.836970e-16 1 -1 -1.836970e-16 42.6667 2.6667)" class="st1" width="2.7" height="2.7"/>
	<rect x="10.7" y="26.7" transform="matrix(-1.836970e-16 1 -1 -1.836970e-16 40 16)" class="st1" width="2.7" height="2.7"/>
	
		<rect x="10.7" y="24" transform="matrix(-1.836970e-16 1 -1 -1.836970e-16 37.3333 13.3333)" class="st1" width="2.7" height="2.7"/>
	
		<rect x="10.7" y="21.3" transform="matrix(-1.836970e-16 1 -1 -1.836970e-16 34.6667 10.6667)" class="st1" width="2.7" height="2.7"/>
	
		<rect x="16" y="18.7" transform="matrix(-1.836970e-16 1 -1 -1.836970e-16 37.3333 2.6667)" class="st1" width="2.7" height="2.7"/>
	
		<rect x="18.7" y="18.7" transform="matrix(-1.836970e-16 1 -1 -1.836970e-16 40 3.641532e-12)" class="st1" width="2.7" height="2.7"/>
	
		<rect x="13.3" y="18.7" transform="matrix(-1.836970e-16 1 -1 -1.836970e-16 34.6667 5.3333)" class="st1" width="2.7" height="2.7"/>
	<rect x="10.7" y="18.7" transform="matrix(-1.836970e-16 1 -1 -1.836970e-16 32 8)" class="st1" width="2.7" height="2.7"/>
	
		<rect x="10.7" y="29.3" transform="matrix(-1.836970e-16 1 -1 -1.836970e-16 42.6667 18.6667)" class="st1" width="2.7" height="2.7"/>
	<rect x="8" y="29.3" transform="matrix(-1.836970e-16 1 -1 -1.836970e-16 40 21.3333)" class="st1" width="2.7" height="2.7"/>
	<rect x="5.3" y="29.3" transform="matrix(-1.836970e-16 1 -1 -1.836970e-16 37.3333 24)" class="st1" width="2.7" height="2.7"/>
	
		<rect x="2.7" y="29.3" transform="matrix(-1.836970e-16 1 -1 -1.836970e-16 34.6667 26.6667)" class="st1" width="2.7" height="2.7"/>
	<rect x="0" y="29.3" transform="matrix(-1.836970e-16 1 -1 -1.836970e-16 32 29.3333)" class="st1" width="2.7" height="2.7"/>
	<rect x="16" y="0" transform="matrix(-1.836970e-16 1 -1 -1.836970e-16 18.6667 -16)" class="st1" width="2.7" height="2.7"/>
	<rect x="18.7" y="2.7" transform="matrix(-1.836970e-16 1 -1 -1.836970e-16 24 -16)" class="st1" width="2.7" height="2.7"/>
	<rect x="21.3" y="5.3" transform="matrix(-1.836970e-16 1 -1 -1.836970e-16 29.3333 -16)" class="st1" width="2.7" height="2.7"/>
	<rect x="24" y="8" transform="matrix(-1.836970e-16 1 -1 -1.836970e-16 34.6667 -16)" class="st1" width="2.7" height="2.7"/>
	
		<rect x="18.7" y="5.3" transform="matrix(-1.836970e-16 1 -1 -1.836970e-16 26.6667 -13.3333)" class="st1" width="2.7" height="2.7"/>
	<rect x="21.3" y="8" transform="matrix(-1.836970e-16 1 -1 -1.836970e-16 32 -13.3333)" class="st1" width="2.7" height="2.7"/>
	
		<rect x="24" y="10.7" transform="matrix(-1.836970e-16 1 -1 -1.836970e-16 37.3333 -13.3333)" class="st1" width="2.7" height="2.7"/>
	<rect x="26.7" y="10.7" transform="matrix(-1.836970e-16 1 -1 -1.836970e-16 40 -16)" class="st1" width="2.7" height="2.7"/>
	
		<rect x="26.7" y="13.3" transform="matrix(-1.836970e-16 1 -1 -1.836970e-16 42.6667 -13.3333)" class="st1" width="2.7" height="2.7"/>
	<rect x="29.3" y="13.3" transform="matrix(-1.836970e-16 1 -1 -1.836970e-16 45.3333 -16)" class="st1" width="2.7" height="2.7"/>
	<rect x="13.3" y="0" transform="matrix(-1.836970e-16 1 -1 -1.836970e-16 16 -13.3333)" class="st1" width="2.7" height="2.7"/>
	
		<rect x="16" y="2.7" transform="matrix(-1.836970e-16 1 -1 -1.836970e-16 21.3333 -13.3333)" class="st1" width="2.7" height="2.7"/>
	
		<rect x="13.3" y="2.7" transform="matrix(-1.836970e-16 1 -1 -1.836970e-16 18.6667 -10.6667)" class="st1" width="2.7" height="2.7"/>
	<rect x="10.7" y="2.7" transform="matrix(-1.836970e-16 1 -1 -1.836970e-16 16 -8)" class="st1" width="2.7" height="2.7"/>
	<rect x="8" y="5.3" transform="matrix(-1.836970e-16 1 -1 -1.836970e-16 16 -2.6667)" class="st1" width="2.7" height="2.7"/>
	<rect x="5.3" y="8" transform="matrix(-1.836970e-16 1 -1 -1.836970e-16 16 2.6667)" class="st1" width="2.7" height="2.7"/>
	<rect x="2.7" y="10.7" transform="matrix(-1.836970e-16 1 -1 -1.836970e-16 16 8)" class="st1" width="2.7" height="2.7"/>
	
		<rect x="10.7" y="5.3" transform="matrix(-1.836970e-16 1 -1 -1.836970e-16 18.6667 -5.3333)" class="st1" width="2.7" height="2.7"/>
	
		<rect x="8" y="8" transform="matrix(-1.836970e-16 1 -1 -1.836970e-16 18.6667 1.820766e-12)" class="st1" width="2.7" height="2.7"/>
	
		<rect x="5.3" y="10.7" transform="matrix(-1.836970e-16 1 -1 -1.836970e-16 18.6667 5.3333)" class="st1" width="2.7" height="2.7"/>
	<rect x="0" y="13.3" transform="matrix(-1.836970e-16 1 -1 -1.836970e-16 16 13.3333)" class="st1" width="2.7" height="2.7"/>
	
		<rect x="2.7" y="13.3" transform="matrix(-1.836970e-16 1 -1 -1.836970e-16 18.6667 10.6667)" class="st1" width="2.7" height="2.7"/>
</g>
<g id="Calque_22" class="st0">
	<rect x="0" y="21.4" transform="matrix(-1 -1.224647e-16 1.224647e-16 -1 2.6667 45.3712)" class="st1" width="2.7" height="2.7"/>
	<rect x="2.7" y="21.4" transform="matrix(-1 -1.224647e-16 1.224647e-16 -1 8 45.3712)" class="st1" width="2.7" height="2.7"/>
	
		<rect x="5.3" y="21.4" transform="matrix(-1 -1.224647e-16 1.224647e-16 -1 13.3333 45.3712)" class="st1" width="2.7" height="2.7"/>
	
		<rect x="5.3" y="24" transform="matrix(-1 -1.224647e-16 1.224647e-16 -1 13.3333 50.7045)" class="st1" width="2.7" height="2.7"/>
	<rect x="8" y="24" transform="matrix(-1 -1.224647e-16 1.224647e-16 -1 18.6667 50.7045)" class="st1" width="2.7" height="2.7"/>
	
		<rect x="8" y="26.7" transform="matrix(-1 -1.224647e-16 1.224647e-16 -1 18.6667 56.0379)" class="st1" width="2.7" height="2.7"/>
	<rect x="10.7" y="26.7" transform="matrix(-1 -1.224647e-16 1.224647e-16 -1 24 56.0379)" class="st1" width="2.7" height="2.7"/>
	<rect x="10.7" y="29.4" transform="matrix(-1 -1.224647e-16 1.224647e-16 -1 24 61.3712)" class="st1" width="2.7" height="2.7"/>
	
		<rect x="13.3" y="29.4" transform="matrix(-1 -1.224647e-16 1.224647e-16 -1 29.3333 61.3712)" class="st1" width="2.7" height="2.7"/>
	
		<rect x="16" y="29.4" transform="matrix(-1 -1.224647e-16 1.224647e-16 -1 34.6667 61.3712)" class="st1" width="2.7" height="2.7"/>
	<rect x="0" y="18.7" transform="matrix(-1 -1.224647e-16 1.224647e-16 -1 2.6667 40.0379)" class="st1" width="2.7" height="2.7"/>
	<rect x="0" y="16" transform="matrix(-1 -1.224647e-16 1.224647e-16 -1 2.6667 34.7045)" class="st1" width="2.7" height="2.7"/>
	<rect x="0" y="13.4" transform="matrix(-1 -1.224647e-16 1.224647e-16 -1 2.6667 29.3712)" class="st1" width="2.7" height="2.7"/>
	<rect x="0" y="10.7" transform="matrix(-1 -1.224647e-16 1.224647e-16 -1 2.6667 24.0379)" class="st1" width="2.7" height="2.7"/>
	<rect x="0" y="8" transform="matrix(-1 -1.224647e-16 1.224647e-16 -1 2.6667 18.7045)" class="st1" width="2.7" height="2.7"/>
	<rect x="18.7" y="13.3" transform="matrix(-1 -1.224647e-16 1.224647e-16 -1 40 29.3333)" class="st1" width="2.7" height="2.7"/>
	<rect x="18.7" y="10.7" transform="matrix(-1 -1.224647e-16 1.224647e-16 -1 40 24)" class="st1" width="2.7" height="2.7"/>
	<rect x="18.7" y="8" transform="matrix(-1 -1.224647e-16 1.224647e-16 -1 40 18.6667)" class="st1" width="2.7" height="2.7"/>
	<rect x="18.7" y="5.3" transform="matrix(-1 -1.224647e-16 1.224647e-16 -1 40 13.3333)" class="st1" width="2.7" height="2.7"/>
	<rect x="18.7" y="2.7" transform="matrix(-1 -1.224647e-16 1.224647e-16 -1 40 8)" class="st1" width="2.7" height="2.7"/>
	<rect x="18.7" y="0" transform="matrix(-1 -1.224647e-16 1.224647e-16 -1 40 2.6667)" class="st1" width="2.7" height="2.7"/>
	<rect x="18.7" y="29.3" transform="matrix(-1 -1.224647e-16 1.224647e-16 -1 40 61.3333)" class="st1" width="2.7" height="2.7"/>
	<rect x="18.7" y="26.7" transform="matrix(-1 -1.224647e-16 1.224647e-16 -1 40 56)" class="st1" width="2.7" height="2.7"/>
	<rect x="18.7" y="24" transform="matrix(-1 -1.224647e-16 1.224647e-16 -1 40 50.6667)" class="st1" width="2.7" height="2.7"/>
	<rect x="18.7" y="21.3" transform="matrix(-1 -1.224647e-16 1.224647e-16 -1 40 45.3333)" class="st1" width="2.7" height="2.7"/>
	<rect x="18.7" y="18.7" transform="matrix(-1 -1.224647e-16 1.224647e-16 -1 40 40)" class="st1" width="2.7" height="2.7"/>
	<rect x="18.7" y="16" transform="matrix(-1 -1.224647e-16 1.224647e-16 -1 40 34.6667)" class="st1" width="2.7" height="2.7"/>
	<rect x="2.7" y="8" transform="matrix(-1 -1.224647e-16 1.224647e-16 -1 8 18.7045)" class="st1" width="2.7" height="2.7"/>
	<rect x="5.3" y="8" transform="matrix(-1 -1.224647e-16 1.224647e-16 -1 13.3333 18.7045)" class="st1" width="2.7" height="2.7"/>
	
		<rect x="5.3" y="5.4" transform="matrix(-1 -1.224647e-16 1.224647e-16 -1 13.3333 13.3712)" class="st1" width="2.7" height="2.7"/>
	<rect x="8" y="5.4" transform="matrix(-1 -1.224647e-16 1.224647e-16 -1 18.6667 13.3712)" class="st1" width="2.7" height="2.7"/>
	<rect x="8" y="2.7" transform="matrix(-1 -1.224647e-16 1.224647e-16 -1 18.6667 8.0379)" class="st1" width="2.7" height="2.7"/>
	<rect x="10.7" y="2.7" transform="matrix(-1 -1.224647e-16 1.224647e-16 -1 24 8.0379)" class="st1" width="2.7" height="2.7"/>
	<rect x="10.7" y="0" transform="matrix(-1 -1.224647e-16 1.224647e-16 -1 24 2.7045)" class="st1" width="2.7" height="2.7"/>
	<rect x="13.3" y="0" transform="matrix(-1 -1.224647e-16 1.224647e-16 -1 29.3333 2.7045)" class="st1" width="2.7" height="2.7"/>
	<rect x="16" y="0" transform="matrix(-1 -1.224647e-16 1.224647e-16 -1 34.6667 2.7045)" class="st1" width="2.7" height="2.7"/>
</g>
<g id="Calque_23" class="st0">
	
		<rect x="29.3" y="13.3" transform="matrix(-1 -1.224647e-16 1.224647e-16 -1 61.3333 29.3333)" class="st1" width="2.7" height="2.7"/>
	<rect x="29.3" y="10.7" transform="matrix(-1 -1.224647e-16 1.224647e-16 -1 61.3333 24)" class="st1" width="2.7" height="2.7"/>
	
		<rect x="29.3" y="8" transform="matrix(-1 -1.224647e-16 1.224647e-16 -1 61.3333 18.6667)" class="st1" width="2.7" height="2.7"/>
	
		<rect x="29.3" y="5.4" transform="matrix(-1 -1.224647e-16 1.224647e-16 -1 61.3333 13.3712)" class="st1" width="2.7" height="2.7"/>
	
		<rect x="29.3" y="21.3" transform="matrix(-1 -1.224647e-16 1.224647e-16 -1 61.3333 45.3333)" class="st1" width="2.7" height="2.7"/>
	
		<rect x="29.3" y="24" transform="matrix(-1 -1.224647e-16 1.224647e-16 -1 61.3333 50.6667)" class="st1" width="2.7" height="2.7"/>
	<rect x="29.3" y="18.7" transform="matrix(-1 -1.224647e-16 1.224647e-16 -1 61.3333 40)" class="st1" width="2.7" height="2.7"/>
	
		<rect x="29.3" y="16" transform="matrix(-1 -1.224647e-16 1.224647e-16 -1 61.3333 34.6667)" class="st1" width="2.7" height="2.7"/>
	
		<rect x="24" y="13.3" transform="matrix(-1 -1.224647e-16 1.224647e-16 -1 50.6667 29.3333)" class="st1" width="2.7" height="2.7"/>
	<rect x="24" y="10.7" transform="matrix(-1 -1.224647e-16 1.224647e-16 -1 50.6667 24)" class="st1" width="2.7" height="2.7"/>
	<rect x="24" y="18.7" transform="matrix(-1 -1.224647e-16 1.224647e-16 -1 50.6667 40)" class="st1" width="2.7" height="2.7"/>
	<rect x="24" y="16" transform="matrix(-1 -1.224647e-16 1.224647e-16 -1 50.6667 34.6667)" class="st1" width="2.7" height="2.7"/>
</g>
<g id="Calque_24" class="st0">
	
		<rect x="29.3" y="10.6" transform="matrix(-1 -1.224647e-16 1.224647e-16 -1 61.3333 23.9242)" class="st1" width="2.7" height="2.7"/>
	<rect x="26.7" y="13.4" transform="matrix(-1 -1.224647e-16 1.224647e-16 -1 56 29.3712)" class="st1" width="2.7" height="2.7"/>
	<rect x="24" y="16" transform="matrix(-1 -1.224647e-16 1.224647e-16 -1 50.6667 34.7045)" class="st1" width="2.7" height="2.7"/>
	
		<rect x="24" y="10.6" transform="matrix(-1 -1.224647e-16 1.224647e-16 -1 50.6667 23.9621)" class="st1" width="2.7" height="2.7"/>
	
		<rect x="29.3" y="16" transform="matrix(-1 -1.224647e-16 1.224647e-16 -1 61.3333 34.5909)" class="st1" width="2.7" height="2.7"/>
</g>
<g id="Calque_25" class="st0">
	
		<rect x="29.3" y="13.3" transform="matrix(-1 -1.224647e-16 1.224647e-16 -1 61.3333 29.3333)" class="st1" width="2.7" height="2.7"/>
	<rect x="29.3" y="10.7" transform="matrix(-1 -1.224647e-16 1.224647e-16 -1 61.3333 24)" class="st1" width="2.7" height="2.7"/>
	
		<rect x="29.3" y="8" transform="matrix(-1 -1.224647e-16 1.224647e-16 -1 61.3333 18.6667)" class="st1" width="2.7" height="2.7"/>
	<rect x="26.7" y="8" transform="matrix(-1 -1.224647e-16 1.224647e-16 -1 56 18.6667)" class="st1" width="2.7" height="2.7"/>
	<rect x="24" y="8" transform="matrix(-1 -1.224647e-16 1.224647e-16 -1 50.6667 18.6667)" class="st1" width="2.7" height="2.7"/>
	
		<rect x="21.3" y="8" transform="matrix(-1 -1.224647e-16 1.224647e-16 -1 45.3333 18.6667)" class="st1" width="2.7" height="2.7"/>
	<rect x="18.7" y="8" transform="matrix(-1 -1.224647e-16 1.224647e-16 -1 40 18.6667)" class="st1" width="2.7" height="2.7"/>
	
		<rect x="29.3" y="21.3" transform="matrix(-1 -1.224647e-16 1.224647e-16 -1 61.3333 45.3333)" class="st1" width="2.7" height="2.7"/>
	<rect x="26.7" y="21.3" transform="matrix(-1 -1.224647e-16 1.224647e-16 -1 56 45.3333)" class="st1" width="2.7" height="2.7"/>
	
		<rect x="24" y="21.3" transform="matrix(-1 -1.224647e-16 1.224647e-16 -1 50.6667 45.3333)" class="st1" width="2.7" height="2.7"/>
	
		<rect x="21.3" y="21.3" transform="matrix(-1 -1.224647e-16 1.224647e-16 -1 45.3333 45.3333)" class="st1" width="2.7" height="2.7"/>
	<rect x="18.7" y="21.3" transform="matrix(-1 -1.224647e-16 1.224647e-16 -1 40 45.3333)" class="st1" width="2.7" height="2.7"/>
	
		<rect x="16" y="21.3" transform="matrix(-1 -1.224647e-16 1.224647e-16 -1 34.6667 45.3333)" class="st1" width="2.7" height="2.7"/>
	<rect x="16" y="24" transform="matrix(-1 -1.224647e-16 1.224647e-16 -1 34.6667 50.6667)" class="st1" width="2.7" height="2.7"/>
	<rect x="16" y="26.7" transform="matrix(-1 -1.224647e-16 1.224647e-16 -1 34.6667 56)" class="st1" width="2.7" height="2.7"/>
	
		<rect x="16" y="29.3" transform="matrix(-1 -1.224647e-16 1.224647e-16 -1 34.6667 61.3333)" class="st1" width="2.7" height="2.7"/>
	<rect x="16" y="2.7" transform="matrix(-1 -1.224647e-16 1.224647e-16 -1 34.6667 8)" class="st1" width="2.7" height="2.7"/>
	<rect x="16" y="0" transform="matrix(-1 -1.224647e-16 1.224647e-16 -1 34.6667 2.6667)" class="st1" width="2.7" height="2.7"/>
	
		<rect x="16" y="5.3" transform="matrix(-1 -1.224647e-16 1.224647e-16 -1 34.6667 13.3333)" class="st1" width="2.7" height="2.7"/>
	<rect x="16" y="8" transform="matrix(-1 -1.224647e-16 1.224647e-16 -1 34.6667 18.6667)" class="st1" width="2.7" height="2.7"/>
	<rect x="29.3" y="18.7" transform="matrix(-1 -1.224647e-16 1.224647e-16 -1 61.3333 40)" class="st1" width="2.7" height="2.7"/>
	
		<rect x="29.3" y="16" transform="matrix(-1 -1.224647e-16 1.224647e-16 -1 61.3333 34.6667)" class="st1" width="2.7" height="2.7"/>
	<rect x="0" y="10.7" transform="matrix(-1 -1.224647e-16 1.224647e-16 -1 2.6667 24)" class="st1" width="2.7" height="2.7"/>
	<rect x="0" y="18.7" transform="matrix(-1 -1.224647e-16 1.224647e-16 -1 2.6667 40)" class="st1" width="2.7" height="2.7"/>
	<rect x="2.7" y="8" transform="matrix(-1 -1.224647e-16 1.224647e-16 -1 8 18.6667)" class="st1" width="2.7" height="2.7"/>
	<rect x="2.7" y="21.3" transform="matrix(-1 -1.224647e-16 1.224647e-16 -1 8 45.3333)" class="st1" width="2.7" height="2.7"/>
	
		<rect x="5.3" y="5.3" transform="matrix(-1 -1.224647e-16 1.224647e-16 -1 13.3333 13.3333)" class="st1" width="2.7" height="2.7"/>
	
		<rect x="5.3" y="24" transform="matrix(-1 -1.224647e-16 1.224647e-16 -1 13.3333 50.6667)" class="st1" width="2.7" height="2.7"/>
	<rect x="8" y="2.7" transform="matrix(-1 -1.224647e-16 1.224647e-16 -1 18.6667 8)" class="st1" width="2.7" height="2.7"/>
	<rect x="8" y="26.7" transform="matrix(-1 -1.224647e-16 1.224647e-16 -1 18.6667 56)" class="st1" width="2.7" height="2.7"/>
	<rect x="0" y="13.3" transform="matrix(-1 -1.224647e-16 1.224647e-16 -1 2.6667 29.3333)" class="st1" width="2.7" height="2.7"/>
	<rect x="2.7" y="10.7" transform="matrix(-1 -1.224647e-16 1.224647e-16 -1 8 24)" class="st1" width="2.7" height="2.7"/>
	<rect x="5.3" y="8" transform="matrix(-1 -1.224647e-16 1.224647e-16 -1 13.3333 18.6667)" class="st1" width="2.7" height="2.7"/>
	<rect x="8" y="5.3" transform="matrix(-1 -1.224647e-16 1.224647e-16 -1 18.6667 13.3333)" class="st1" width="2.7" height="2.7"/>
	<rect x="10.7" y="2.7" transform="matrix(-1 -1.224647e-16 1.224647e-16 -1 24 8)" class="st1" width="2.7" height="2.7"/>
	<rect x="10.7" transform="matrix(-1 -1.224647e-16 1.224647e-16 -1 24 2.6667)" class="st1" width="2.7" height="2.7"/>
	<rect x="13.3" y="0" transform="matrix(-1 -1.224647e-16 1.224647e-16 -1 29.3333 2.6667)" class="st1" width="2.7" height="2.7"/>
	<rect x="2.7" y="18.7" transform="matrix(-1 -1.224647e-16 1.224647e-16 -1 8 40)" class="st1" width="2.7" height="2.7"/>
	
		<rect x="5.3" y="21.3" transform="matrix(-1 -1.224647e-16 1.224647e-16 -1 13.3333 45.3333)" class="st1" width="2.7" height="2.7"/>
	<rect x="8" y="24" transform="matrix(-1 -1.224647e-16 1.224647e-16 -1 18.6667 50.6667)" class="st1" width="2.7" height="2.7"/>
	<rect x="10.7" y="26.7" transform="matrix(-1 -1.224647e-16 1.224647e-16 -1 24 56)" class="st1" width="2.7" height="2.7"/>
	<rect x="10.7" y="29.3" transform="matrix(-1 -1.224647e-16 1.224647e-16 -1 24 61.3333)" class="st1" width="2.7" height="2.7"/>
	
		<rect x="13.3" y="29.3" transform="matrix(-1 -1.224647e-16 1.224647e-16 -1 29.3333 61.3333)" class="st1" width="2.7" height="2.7"/>
	<rect x="0" y="16" transform="matrix(-1 -1.224647e-16 1.224647e-16 -1 2.6667 34.6667)" class="st1" width="2.7" height="2.7"/>
</g>
<g id="Calque_26" class="st0">
	<rect y="13.3" transform="matrix(-1 -1.224647e-16 1.224647e-16 -1 2.6667 29.3333)" class="st1" width="2.7" height="2.7"/>
	<rect y="10.7" transform="matrix(-1 -1.224647e-16 1.224647e-16 -1 2.6667 24)" class="st1" width="2.7" height="2.7"/>
	<rect y="8" transform="matrix(-1 -1.224647e-16 1.224647e-16 -1 2.6667 18.6667)" class="st1" width="2.7" height="2.7"/>
	<rect y="5.3" transform="matrix(-1 -1.224647e-16 1.224647e-16 -1 2.6667 13.3333)" class="st1" width="2.7" height="2.7"/>
	<rect y="2.7" transform="matrix(-1 -1.224647e-16 1.224647e-16 -1 2.6667 8)" class="st1" width="2.7" height="2.7"/>
	<rect y="26.7" transform="matrix(-1 -1.224647e-16 1.224647e-16 -1 2.6667 56)" class="st1" width="2.7" height="2.7"/>
	<rect y="24" transform="matrix(-1 -1.224647e-16 1.224647e-16 -1 2.6667 50.6667)" class="st1" width="2.7" height="2.7"/>
	<rect y="21.3" transform="matrix(-1 -1.224647e-16 1.224647e-16 -1 2.6667 45.3333)" class="st1" width="2.7" height="2.7"/>
	<rect y="18.7" transform="matrix(-1 -1.224647e-16 1.224647e-16 -1 2.6667 40)" class="st1" width="2.7" height="2.7"/>
	<rect y="16" transform="matrix(-1 -1.224647e-16 1.224647e-16 -1 2.6667 34.6667)" class="st1" width="2.7" height="2.7"/>
	<rect x="16" y="0" transform="matrix(6.123234e-17 -1 1 6.123234e-17 16 18.6667)" class="st1" width="2.7" height="2.7"/>
	<rect x="18.7" y="0" transform="matrix(6.123234e-17 -1 1 6.123234e-17 18.6667 21.3333)" class="st1" width="2.7" height="2.7"/>
	<rect x="21.3" y="0" transform="matrix(6.123234e-17 -1 1 6.123234e-17 21.3333 24)" class="st1" width="2.7" height="2.7"/>
	<rect x="24" y="0" transform="matrix(6.123234e-17 -1 1 6.123234e-17 24 26.6667)" class="st1" width="2.7" height="2.7"/>
	<rect x="26.7" y="0" transform="matrix(6.123234e-17 -1 1 6.123234e-17 26.6667 29.3333)" class="st1" width="2.7" height="2.7"/>
	<rect x="2.7" y="0" transform="matrix(6.123234e-17 -1 1 6.123234e-17 2.6667 5.3333)" class="st1" width="2.7" height="2.7"/>
	<rect x="5.3" y="0" transform="matrix(6.123234e-17 -1 1 6.123234e-17 5.3333 8)" class="st1" width="2.7" height="2.7"/>
	<rect x="8" y="0" transform="matrix(6.123234e-17 -1 1 6.123234e-17 8 10.6667)" class="st1" width="2.7" height="2.7"/>
	<rect x="10.7" y="0" transform="matrix(6.123234e-17 -1 1 6.123234e-17 10.6667 13.3333)" class="st1" width="2.7" height="2.7"/>
	<rect x="13.3" y="0" transform="matrix(6.123234e-17 -1 1 6.123234e-17 13.3333 16)" class="st1" width="2.7" height="2.7"/>
	<rect x="16" y="29.3" transform="matrix(6.123234e-17 -1 1 6.123234e-17 -13.3333 48)" class="st1" width="2.7" height="2.7"/>
	
		<rect x="18.7" y="29.3" transform="matrix(6.123234e-17 -1 1 6.123234e-17 -10.6667 50.6667)" class="st1" width="2.7" height="2.7"/>
	<rect x="21.3" y="29.3" transform="matrix(6.123234e-17 -1 1 6.123234e-17 -8 53.3333)" class="st1" width="2.7" height="2.7"/>
	<rect x="24" y="29.3" transform="matrix(6.123234e-17 -1 1 6.123234e-17 -5.3333 56)" class="st1" width="2.7" height="2.7"/>
	
		<rect x="26.7" y="29.3" transform="matrix(6.123234e-17 -1 1 6.123234e-17 -2.6667 58.6667)" class="st1" width="2.7" height="2.7"/>
	
		<rect x="2.7" y="29.3" transform="matrix(6.123234e-17 -1 1 6.123234e-17 -26.6667 34.6667)" class="st1" width="2.7" height="2.7"/>
	<rect x="5.3" y="29.3" transform="matrix(6.123234e-17 -1 1 6.123234e-17 -24 37.3333)" class="st1" width="2.7" height="2.7"/>
	<rect x="8" y="29.3" transform="matrix(6.123234e-17 -1 1 6.123234e-17 -21.3333 40)" class="st1" width="2.7" height="2.7"/>
	
		<rect x="10.7" y="29.3" transform="matrix(6.123234e-17 -1 1 6.123234e-17 -18.6667 42.6667)" class="st1" width="2.7" height="2.7"/>
	
		<rect x="10.7" y="24" transform="matrix(6.123234e-17 -1 1 6.123234e-17 -13.3333 37.3333)" class="st1" width="2.7" height="2.7"/>
	<rect x="8" y="21.3" transform="matrix(6.123234e-17 -1 1 6.123234e-17 -13.3333 32)" class="st1" width="2.7" height="2.7"/>
	<rect x="8" y="18.7" transform="matrix(6.123234e-17 -1 1 6.123234e-17 -10.6667 29.3333)" class="st1" width="2.7" height="2.7"/>
	<rect x="8" y="16" transform="matrix(6.123234e-17 -1 1 6.123234e-17 -8 26.6667)" class="st1" width="2.7" height="2.7"/>
	<rect x="8" y="13.3" transform="matrix(6.123234e-17 -1 1 6.123234e-17 -5.3333 24)" class="st1" width="2.7" height="2.7"/>
	<rect x="8" y="10.7" transform="matrix(6.123234e-17 -1 1 6.123234e-17 -2.6667 21.3333)" class="st1" width="2.7" height="2.7"/>
	
		<rect x="8" y="8" transform="matrix(6.123234e-17 -1 1 6.123234e-17 -4.547474e-12 18.6667)" class="st1" width="2.7" height="2.7"/>
	<rect x="10.7" y="5.3" transform="matrix(6.123234e-17 -1 1 6.123234e-17 5.3333 18.6667)" class="st1" width="2.7" height="2.7"/>
	<rect x="13.3" y="5.3" transform="matrix(6.123234e-17 -1 1 6.123234e-17 8 21.3333)" class="st1" width="2.7" height="2.7"/>
	<rect x="16" y="5.3" transform="matrix(6.123234e-17 -1 1 6.123234e-17 10.6667 24)" class="st1" width="2.7" height="2.7"/>
	
		<rect x="18.7" y="5.3" transform="matrix(6.123234e-17 -1 1 6.123234e-17 13.3333 26.6667)" class="st1" width="2.7" height="2.7"/>
	<rect x="21.3" y="5.3" transform="matrix(6.123234e-17 -1 1 6.123234e-17 16 29.3333)" class="st1" width="2.7" height="2.7"/>
	<rect x="13.3" y="24" transform="matrix(6.123234e-17 -1 1 6.123234e-17 -10.6667 40)" class="st1" width="2.7" height="2.7"/>
	<rect x="16" y="24" transform="matrix(6.123234e-17 -1 1 6.123234e-17 -8 42.6667)" class="st1" width="2.7" height="2.7"/>
	<rect x="18.7" y="24" transform="matrix(6.123234e-17 -1 1 6.123234e-17 -5.3333 45.3333)" class="st1" width="2.7" height="2.7"/>
	<rect x="21.3" y="24" transform="matrix(6.123234e-17 -1 1 6.123234e-17 -2.6667 48)" class="st1" width="2.7" height="2.7"/>
	
		<rect x="21.3" y="21.3" transform="matrix(6.123234e-17 -1 1 6.123234e-17 -3.637979e-12 45.3333)" class="st1" width="2.7" height="2.7"/>
	
		<rect x="21.3" y="18.7" transform="matrix(6.123234e-17 -1 1 6.123234e-17 2.6667 42.6667)" class="st1" width="2.7" height="2.7"/>
	<rect x="18.7" y="18.7" transform="matrix(6.123234e-17 -1 1 6.123234e-17 0 40)" class="st1" width="2.7" height="2.7"/>
	<rect x="16" y="18.7" transform="matrix(6.123234e-17 -1 1 6.123234e-17 -2.6667 37.3333)" class="st1" width="2.7" height="2.7"/>
	
		<rect x="13.3" y="18.7" transform="matrix(6.123234e-17 -1 1 6.123234e-17 -5.3333 34.6667)" class="st1" width="2.7" height="2.7"/>
	<rect x="13.3" y="16" transform="matrix(6.123234e-17 -1 1 6.123234e-17 -2.6667 32)" class="st1" width="2.7" height="2.7"/>
	
		<rect x="13.3" y="13.3" transform="matrix(6.123234e-17 -1 1 6.123234e-17 -1.776357e-15 29.3333)" class="st1" width="2.7" height="2.7"/>
	
		<rect x="13.3" y="10.7" transform="matrix(6.123234e-17 -1 1 6.123234e-17 2.6667 26.6667)" class="st1" width="2.7" height="2.7"/>
	<rect x="16" y="10.7" transform="matrix(6.123234e-17 -1 1 6.123234e-17 5.3333 29.3333)" class="st1" width="2.7" height="2.7"/>
	<rect x="18.7" y="10.7" transform="matrix(6.123234e-17 -1 1 6.123234e-17 8 32)" class="st1" width="2.7" height="2.7"/>
	
		<rect x="21.3" y="10.7" transform="matrix(6.123234e-17 -1 1 6.123234e-17 10.6667 34.6667)" class="st1" width="2.7" height="2.7"/>
	<rect x="21.3" y="8" transform="matrix(6.123234e-17 -1 1 6.123234e-17 13.3333 32)" class="st1" width="2.7" height="2.7"/>
	<rect x="13.3" y="29.3" transform="matrix(6.123234e-17 -1 1 6.123234e-17 -16 45.3333)" class="st1" width="2.7" height="2.7"/>
	
		<rect x="29.3" y="13.3" transform="matrix(-1 -1.224647e-16 1.224647e-16 -1 61.3333 29.3333)" class="st1" width="2.7" height="2.7"/>
	<rect x="29.3" y="10.7" transform="matrix(-1 -1.224647e-16 1.224647e-16 -1 61.3333 24)" class="st1" width="2.7" height="2.7"/>
	
		<rect x="29.3" y="8" transform="matrix(-1 -1.224647e-16 1.224647e-16 -1 61.3333 18.6667)" class="st1" width="2.7" height="2.7"/>
	
		<rect x="29.3" y="5.3" transform="matrix(-1 -1.224647e-16 1.224647e-16 -1 61.3333 13.3333)" class="st1" width="2.7" height="2.7"/>
	<rect x="29.3" y="2.7" transform="matrix(-1 -1.224647e-16 1.224647e-16 -1 61.3333 8)" class="st1" width="2.7" height="2.7"/>
	<rect x="29.3" y="0" transform="matrix(-1 -1.224647e-16 1.224647e-16 -1 61.3333 2.6667)" class="st1" width="2.7" height="2.7"/>
	
		<rect x="29.3" y="29.3" transform="matrix(-1 -1.224647e-16 1.224647e-16 -1 61.3333 61.3333)" class="st1" width="2.7" height="2.7"/>
	<rect x="29.3" y="26.7" transform="matrix(-1 -1.224647e-16 1.224647e-16 -1 61.3333 56)" class="st1" width="2.7" height="2.7"/>
	
		<rect x="29.3" y="24" transform="matrix(-1 -1.224647e-16 1.224647e-16 -1 61.3333 50.6667)" class="st1" width="2.7" height="2.7"/>
	
		<rect x="29.3" y="21.3" transform="matrix(-1 -1.224647e-16 1.224647e-16 -1 61.3333 45.3333)" class="st1" width="2.7" height="2.7"/>
	<rect x="29.3" y="18.7" transform="matrix(-1 -1.224647e-16 1.224647e-16 -1 61.3333 40)" class="st1" width="2.7" height="2.7"/>
	
		<rect x="29.3" y="16" transform="matrix(-1 -1.224647e-16 1.224647e-16 -1 61.3333 34.6667)" class="st1" width="2.7" height="2.7"/>
</g>
</svg>
