<?xml version="1.0" encoding="UTF-8"?>
<svg width="32px" height="32px" viewBox="0 0 32 32" version="1.1" xmlns="http://www.w3.org/2000/svg" xmlns:xlink="http://www.w3.org/1999/xlink">
    <title>Group</title>
    <g id="Page-1" stroke="none" stroke-width="1" fill="none" fill-rule="evenodd">
        <g id="Tablet" transform="translate(-356.000000, -398.000000)" fill="#D5FFCF" fill-rule="nonzero">
            <g id="Group" transform="translate(356.000000, 398.000000)">
                <polygon id="Path" points="29.3 0 26.7 0 24 0 21.3 0 18.7 0 16 0 16 2.7 18.7 2.7 21.3 2.7 24 2.7 26.7 2.7 26.7 5.3 29.3 5.3 29.3 8 29.3 10.7 29.3 13.3 29.3 16 32 16 32 13.3 32 10.7 32 8 32 5.3 32 2.7 32 0"></polygon>
                <rect id="Rectangle" x="24" y="5.3" width="2.7" height="2.7"></rect>
                <rect id="Rectangle" x="21.3" y="8" width="2.7" height="2.7"></rect>
                <rect id="Rectangle" x="18.7" y="10.7" width="2.7" height="2.7"></rect>
                <rect id="Rectangle" x="16" y="13.3" width="2.7" height="2.7"></rect>
                <rect id="Rectangle" x="13.3" y="16" width="2.7" height="2.7"></rect>
                <rect id="Rectangle" x="10.7" y="18.7" width="2.7" height="2.7"></rect>
                <rect id="Rectangle" x="8" y="21.3" width="2.7" height="2.7"></rect>
                <rect id="Rectangle" x="5.3" y="24" width="2.7" height="2.7"></rect>
                <polygon id="Path" points="29.3 26.7 29.3 29.3 26.7 29.3 24 29.3 21.3 29.3 18.7 29.3 16 29.3 13.3 29.3 10.7 29.3 8 29.3 5.3 29.3 2.7 29.3 2.7 26.7 2.7 24 2.7 21.3 2.7 18.7 2.7 16 2.7 13.3 2.7 10.7 2.7 8 2.7 5.3 2.7 2.7 5.3 2.7 8 2.7 8 0 5.3 0 2.7 0 0 0 0 2.7 0 5.3 0 8 0 10.7 0 13.3 0 16 0 18.7 0 21.3 0 24 0 26.7 0 29.3 0 32 2.7 32 5.3 32 8 32 10.7 32 13.3 32 16 32 18.7 32 21.3 32 24 32 26.7 32 29.3 32 32 32 32 29.3 32 26.7 32 24 29.3 24"></polygon>
            </g>
        </g>
    </g>
</svg>