<svg xmlns="http://www.w3.org/2000/svg" viewBox="0 0 401.76 222.3">
  <defs>
    <style>
      .cls-1 {
        fill: #fff;
      }
    </style>
  </defs>
  <g id="Calque_2" data-name="Calque 2">
    <g id="Calque_1-2" data-name="Calque 1">
      <g>
        <path class="cls-1" d="M142.82,5.59V16.14H364.5V58.37H343.39V79.48h52.78v31.67H385.62V216.71H16.14V206.16H5.59V121.71H16.14V111.15H26.7V26.7H37.26V16.14h63.33V5.59h42.23M148.41,0H95V10.56H31.67V21.11H21.11v84.45H10.56v10.56H0v95.62H10.56V222.3H391.2V116.74h10.56V73.89H349V64h21.11V10.56H148.41V0Z"/>
        <polygon class="cls-1" points="58.37 121.7 47.81 121.7 37.26 121.7 26.7 121.7 26.7 132.26 16.14 132.26 16.14 142.82 16.14 153.37 16.14 163.93 16.14 174.49 16.14 185.04 16.14 195.6 26.7 195.6 26.7 206.16 37.26 206.16 47.81 206.16 58.37 206.16 68.92 206.16 79.48 206.16 79.48 195.6 79.48 185.04 68.92 185.04 58.37 185.04 47.81 185.04 37.26 185.04 37.26 174.49 37.26 163.93 37.26 153.37 37.26 142.82 47.81 142.82 58.37 142.82 68.92 142.82 79.48 142.82 79.48 132.26 79.48 121.7 68.92 121.7 58.37 121.7"/>
        <path class="cls-1" d="M142.82,121.71H100.59v10.55H90v73.9h21.11V185h21.11v21.12h21.12v-73.9H142.82Zm-10.56,31.66v10.56H111.15V142.82h21.11Z"/>
        <path class="cls-1" d="M216.72,121.71H163.93v84.45h21.12V185H195.6V195.6h10.56v10.56h21.11V195.6H216.72V185h10.55V132.26H216.72Zm-10.56,31.66v10.56H185.05V142.82h21.11Z"/>
        <path class="cls-1" d="M290.61,121.71H237.83v84.45h21.11V185H269.5V195.6h10.55v10.56h21.12V195.6H290.61V185h10.56V132.26H290.61Zm-10.56,31.66v10.56H258.94V142.82h21.11Z"/>
        <polygon class="cls-1" points="353.95 121.7 343.39 121.7 332.83 121.7 322.28 121.7 322.28 132.26 311.72 132.26 311.72 142.82 311.72 153.37 311.72 163.93 311.72 174.49 311.72 185.04 311.72 195.6 322.28 195.6 322.28 206.16 332.83 206.16 343.39 206.16 353.95 206.16 364.5 206.16 375.06 206.16 375.06 195.6 375.06 185.04 364.5 185.04 353.95 185.04 343.39 185.04 332.83 185.04 332.83 174.49 343.39 174.49 353.95 174.49 364.5 174.49 375.06 174.49 375.06 163.93 375.06 153.37 364.5 153.37 353.95 153.37 343.39 153.37 332.83 153.37 332.83 142.82 343.39 142.82 353.95 142.82 364.5 142.82 375.06 142.82 375.06 132.26 375.06 121.7 364.5 121.7 353.95 121.7"/>
        <polygon class="cls-1" points="375.06 90.04 364.5 90.04 353.95 90.04 353.95 100.59 343.39 100.59 343.39 111.15 353.95 111.15 364.5 111.15 375.06 111.15 375.06 100.59 385.62 100.59 385.62 90.04 375.06 90.04"/>
        <polygon class="cls-1" points="121.71 58.37 132.26 58.37 132.26 47.81 132.26 37.25 132.26 26.7 132.26 26.7 132.26 16.14 121.71 16.14 111.15 16.14 111.15 26.7 111.15 26.7 111.15 37.25 111.15 47.81 111.15 58.37 111.15 68.92 121.71 68.92 121.71 58.37"/>
        <polygon class="cls-1" points="100.59 111.15 100.59 100.59 100.59 90.04 90.04 90.04 79.48 90.04 68.92 90.04 58.37 90.04 58.37 79.48 58.37 68.92 58.37 58.37 58.37 47.81 68.92 47.81 79.48 47.81 90.04 47.81 100.59 47.81 100.59 37.25 100.59 26.7 90.04 26.7 79.48 26.7 68.92 26.7 58.37 26.7 47.81 26.7 47.81 37.25 37.26 37.25 37.26 47.81 37.26 58.37 37.26 68.92 37.26 79.48 37.26 90.04 37.26 100.59 47.81 100.59 47.81 111.15 58.37 111.15 68.92 111.15 79.48 111.15 90.04 111.15 100.59 111.15"/>
        <polygon class="cls-1" points="163.93 111.15 174.49 111.15 185.05 111.15 195.6 111.15 206.16 111.15 206.16 100.59 206.16 90.04 195.6 90.04 185.05 90.04 174.49 90.04 163.93 90.04 163.93 79.48 174.49 79.48 185.05 79.48 195.6 79.48 206.16 79.48 206.16 68.92 206.16 58.37 195.6 58.37 185.05 58.37 174.49 58.37 163.93 58.37 163.93 47.81 174.49 47.81 185.05 47.81 195.6 47.81 206.16 47.81 206.16 37.25 206.16 26.7 195.6 26.7 185.05 26.7 174.49 26.7 163.93 26.7 153.38 26.7 153.38 37.25 142.82 37.25 142.82 47.81 142.82 58.37 142.82 68.92 142.82 79.48 142.82 90.04 142.82 100.59 153.38 100.59 153.38 111.15 163.93 111.15"/>
        <polygon class="cls-1" points="248.38 111.15 258.94 111.15 269.5 111.15 269.5 100.59 280.05 100.59 280.05 90.04 280.05 79.48 280.05 68.92 280.05 58.37 269.5 58.37 258.94 58.37 248.38 58.37 237.83 58.37 237.83 47.81 248.38 47.81 258.94 47.81 269.5 47.81 280.05 47.81 280.05 37.25 280.05 26.7 269.5 26.7 258.94 26.7 248.38 26.7 237.83 26.7 227.27 26.7 227.27 37.25 216.72 37.25 216.72 47.81 216.72 58.37 216.72 68.92 216.72 79.48 227.27 79.48 237.83 79.48 248.38 79.48 258.94 79.48 258.94 90.04 248.38 90.04 237.83 90.04 227.27 90.04 216.72 90.04 216.72 100.59 216.72 111.15 227.27 111.15 237.83 111.15 248.38 111.15"/>
        <polygon class="cls-1" points="311.72 58.37 311.72 68.92 311.72 79.48 311.72 90.04 311.72 100.59 311.72 111.15 322.28 111.15 332.83 111.15 332.83 100.59 332.83 90.04 332.83 79.48 332.83 68.92 332.83 58.37 332.83 47.81 343.39 47.81 353.95 47.81 353.95 37.25 353.95 26.7 343.39 26.7 332.83 26.7 322.28 26.7 311.72 26.7 301.17 26.7 290.61 26.7 290.61 37.25 290.61 47.81 301.17 47.81 311.72 47.81 311.72 58.37"/>
      </g>
    </g>
  </g>
</svg>
