<svg xmlns="http://www.w3.org/2000/svg" viewBox="0 0 1976.66 1069.89"><defs><style>.cls-1{fill:#fff;}.cls-2{fill:#fffffe;}</style></defs><g id="Calque_2" data-name="Calque 2"><g id="Calque_1-2" data-name="Calque 1"><path class="cls-1" d="M1841.75,28.23V241.58H1735.08V348.26h213.36v693.41H81.56V988.33H28.23V561.62H81.56V508.28h53.35V81.57h53.33V28.23H1841.75M1870,0H160V53.34H106.68v426.7H53.34v53.34H0v483.16H53.34v53.33H1976.66V320H1763.31V269.8H1870V0Z"/><polygon class="cls-2" points="294.92 561.62 241.58 561.62 188.24 561.62 134.9 561.62 134.9 614.96 81.56 614.96 81.56 668.3 81.56 721.63 81.56 774.97 81.56 828.31 81.56 881.65 81.56 934.99 134.9 934.99 134.9 988.33 188.24 988.33 241.58 988.33 294.92 988.33 348.26 988.33 401.6 988.33 401.6 934.99 401.6 881.65 348.26 881.65 294.92 881.65 241.58 881.65 188.24 881.65 188.24 828.31 188.24 774.97 188.24 721.63 188.24 668.3 241.58 668.3 294.92 668.3 348.26 668.3 401.6 668.3 401.6 614.96 401.6 561.62 348.26 561.62 294.92 561.62"/><path class="cls-2" d="M721.63,561.62H508.27V615H454.93V988.33H561.61V881.65H668.29V988.33H775V615H721.63Zm-53.34,160V775H561.61V668.3H668.29Z"/><path class="cls-2" d="M1095,561.62H828.31V988.33H935V881.65h53.34V935h53.34v53.34h106.68V881.65H1095V828.31h53.34V615H1095Zm-53.34,160V775H935V668.3h106.68Z"/><path class="cls-2" d="M1468.38,561.62H1201.69V988.33h106.68V881.65h53.33V935H1415v53.34h106.68V881.65h-53.34V828.31h53.34V615h-53.34Zm-53.34,160V775H1308.37V668.3H1415Z"/><polygon class="cls-2" points="1788.42 561.62 1735.08 561.62 1681.74 561.62 1628.4 561.62 1628.4 614.96 1575.06 614.96 1575.06 668.3 1575.06 721.63 1575.06 774.97 1575.06 828.31 1575.06 881.65 1575.06 934.99 1628.4 934.99 1628.4 988.33 1681.74 988.33 1735.08 988.33 1788.42 988.33 1841.76 988.33 1895.1 988.33 1895.1 934.99 1895.1 881.65 1841.76 881.65 1788.42 881.65 1735.08 881.65 1681.74 881.65 1681.74 828.31 1735.08 828.31 1788.42 828.31 1841.76 828.31 1895.1 828.31 1895.1 774.97 1895.1 721.63 1841.76 721.63 1788.42 721.63 1735.08 721.63 1681.74 721.63 1681.74 668.3 1735.08 668.3 1788.42 668.3 1841.76 668.3 1895.1 668.3 1895.1 614.96 1895.1 561.62 1841.76 561.62 1788.42 561.62"/><polygon class="cls-2" points="1841.76 401.6 1788.42 401.6 1788.42 454.94 1735.08 454.94 1735.08 508.28 1788.42 508.28 1841.76 508.28 1895.1 508.28 1895.1 454.94 1895.1 401.6 1841.76 401.6"/><polygon class="cls-2" points="614.95 241.58 668.29 241.58 668.29 188.24 668.29 134.9 668.29 81.56 614.95 81.56 561.61 81.56 561.61 134.9 561.61 188.24 561.61 241.58 561.61 294.92 614.95 294.92 614.95 241.58"/><polygon class="cls-2" points="508.27 508.28 508.27 454.94 508.27 401.6 454.94 401.6 401.6 401.6 348.26 401.6 294.92 401.6 294.92 348.26 294.92 294.92 294.92 241.58 294.92 188.24 348.26 188.24 401.6 188.24 454.94 188.24 508.27 188.24 508.27 134.9 508.27 81.56 454.94 81.56 401.6 81.56 348.26 81.56 294.92 81.56 241.58 81.56 241.58 134.9 188.24 134.9 188.24 188.24 188.24 241.58 188.24 294.92 188.24 348.26 188.24 401.6 188.24 454.94 241.58 454.94 241.58 508.28 294.92 508.28 348.26 508.28 401.6 508.28 454.94 508.28 508.27 508.28"/><polygon class="cls-2" points="828.31 508.28 881.65 508.28 934.99 508.28 988.33 508.28 1041.67 508.28 1041.67 454.94 1041.67 401.6 988.33 401.6 934.99 401.6 881.65 401.6 828.31 401.6 828.31 348.26 881.65 348.26 934.99 348.26 988.33 348.26 1041.67 348.26 1041.67 294.92 1041.67 241.58 988.33 241.58 934.99 241.58 881.65 241.58 828.31 241.58 828.31 188.24 881.65 188.24 934.99 188.24 988.33 188.24 1041.67 188.24 1041.67 134.9 1041.67 81.56 988.33 81.56 934.99 81.56 881.65 81.56 828.31 81.56 774.97 81.56 774.97 134.9 721.63 134.9 721.63 188.24 721.63 241.58 721.63 294.92 721.63 348.26 721.63 401.6 721.63 454.94 774.97 454.94 774.97 508.28 828.31 508.28"/><polygon class="cls-2" points="1255.03 508.28 1308.37 508.28 1361.7 508.28 1361.7 454.94 1415.04 454.94 1415.04 401.6 1415.04 348.26 1415.04 294.92 1415.04 241.58 1361.7 241.58 1308.37 241.58 1255.03 241.58 1201.69 241.58 1201.69 188.24 1255.03 188.24 1308.37 188.24 1361.7 188.24 1415.04 188.24 1415.04 134.9 1415.04 81.56 1361.7 81.56 1308.37 81.56 1255.03 81.56 1201.69 81.56 1148.35 81.56 1148.35 134.9 1095.01 134.9 1095.01 188.24 1095.01 241.58 1095.01 294.92 1095.01 348.26 1148.35 348.26 1201.69 348.26 1255.03 348.26 1308.37 348.26 1308.37 401.6 1255.03 401.6 1201.69 401.6 1148.35 401.6 1095.01 401.6 1095.01 454.94 1095.01 508.28 1148.35 508.28 1201.69 508.28 1255.03 508.28"/><polygon class="cls-2" points="1575.06 241.58 1575.06 294.92 1575.06 348.26 1575.06 401.6 1575.06 454.94 1575.06 508.28 1628.4 508.28 1681.74 508.28 1681.74 454.94 1681.74 401.6 1681.74 348.26 1681.74 294.92 1681.74 241.58 1681.74 188.24 1735.08 188.24 1788.42 188.24 1788.42 134.9 1788.42 81.56 1735.08 81.56 1681.74 81.56 1628.4 81.56 1575.06 81.56 1521.72 81.56 1468.38 81.56 1468.38 134.9 1468.38 188.24 1521.72 188.24 1575.06 188.24 1575.06 241.58"/></g></g></svg>