<?xml version="1.0" encoding="utf-8"?>
<!-- Generator: Adobe Illustrator 24.2.3, SVG Export Plug-In . SVG Version: 6.00 Build 0)  -->
<svg version="1.1" xmlns="http://www.w3.org/2000/svg" xmlns:xlink="http://www.w3.org/1999/xlink" x="0px" y="0px"
	 viewBox="0 0 32 32" style="enable-background:new 0 0 32 32;" xml:space="preserve">
<style type="text/css">
	.st0{display:none;}
	.st1{display:inline;}
	.st2{fill:#010202;}
	.st3{fill:#FFFFFF;}
	.st4{fill:#D8D8D8;}
</style>
<g id="Calque_1" class="st0">
	<path class="st1" d="M28.4,10.7V7.1h-3.6V3.6h-3.6V0h-3.6h-3.6h-3.6v3.6H7.1v3.6H3.6v3.6H0v3.6h3.6v3.6v3.6v3.6v3.6V32h3.6h3.6h3.6
		h3.6h3.6h3.6h3.6v-3.6v-3.6v-3.6v-3.6v-3.6H32v-3.6H28.4z M14.2,7.1V3.6h3.6v3.6h3.6v3.6h-3.6h-3.6h-3.6V7.1H14.2z M14.2,28.4v-3.6
		v-3.6h3.6v3.6v3.6H14.2z M24.9,17.8v3.6v3.6v3.6h-3.6v-3.6v-3.6v-3.6h-3.6h-3.6h-3.6v3.6v3.6v3.6H7.1v-3.6v-3.6v-3.6v-3.6h3.6h3.6
		h3.6h3.6h3.6V17.8z"/>
</g>
<g id="Calque_6" class="st0">
	<rect y="28.4" class="st1" width="3.6" height="3.6"/>
	<rect x="3.6" y="28.4" class="st1" width="3.6" height="3.6"/>
	<rect x="7.1" y="28.4" class="st1" width="3.6" height="3.6"/>
	<rect x="10.7" y="28.4" class="st1" width="3.6" height="3.6"/>
	<rect x="14.2" y="28.4" class="st1" width="3.6" height="3.6"/>
	<rect x="17.8" y="28.4" class="st1" width="3.6" height="3.6"/>
	<rect x="21.3" y="28.4" class="st1" width="3.6" height="3.6"/>
	<rect x="24.9" y="28.4" class="st1" width="3.6" height="3.6"/>
	<rect x="28.4" y="28.4" class="st1" width="3.6" height="3.6"/>
	<rect y="7.1" class="st1" width="3.6" height="3.6"/>
	<rect x="3.6" y="7.1" class="st1" width="3.6" height="3.6"/>
	<rect x="7.1" y="7.1" class="st1" width="3.6" height="3.6"/>
	<rect y="21.3" transform="matrix(-1.836970e-16 1 -1 -1.836970e-16 24.8889 21.3333)" class="st1" width="3.6" height="3.6"/>
	
		<rect x="0" y="24.9" transform="matrix(-1.836970e-16 1 -1 -1.836970e-16 28.4444 24.8889)" class="st1" width="3.6" height="3.6"/>
	<rect y="14.2" transform="matrix(-1.836970e-16 1 -1 -1.836970e-16 17.7778 14.2222)" class="st1" width="3.6" height="3.6"/>
	
		<rect x="0" y="10.7" transform="matrix(-1.836970e-16 1 -1 -1.836970e-16 14.2222 10.6667)" class="st1" width="3.6" height="3.6"/>
	
		<rect x="0" y="17.8" transform="matrix(-1.836970e-16 1 -1 -1.836970e-16 21.3333 17.7778)" class="st1" width="3.6" height="3.6"/>
	
		<rect x="7.1" y="17.8" transform="matrix(-1.836970e-16 1 -1 -1.836970e-16 28.4444 10.6667)" class="st1" width="3.6" height="3.6"/>
	
		<rect x="7.1" y="14.2" transform="matrix(-1.836970e-16 1 -1 -1.836970e-16 24.8889 7.1111)" class="st1" width="3.6" height="3.6"/>
	<rect x="7.1" y="21.3" transform="matrix(-1.836970e-16 1 -1 -1.836970e-16 32 14.2222)" class="st1" width="3.6" height="3.6"/>
	<rect x="10.7" y="17.8" transform="matrix(-1.836970e-16 1 -1 -1.836970e-16 32 7.1111)" class="st1" width="3.6" height="3.6"/>
	
		<rect x="21.3" y="14.2" transform="matrix(-1.836970e-16 1 -1 -1.836970e-16 39.1111 -7.1111)" class="st1" width="3.6" height="3.6"/>
	
		<rect x="21.3" y="21.3" transform="matrix(-1.836970e-16 1 -1 -1.836970e-16 46.2222 1.000799e-11)" class="st1" width="3.6" height="3.6"/>
	
		<rect x="3.6" y="17.8" transform="matrix(-1.836970e-16 1 -1 -1.836970e-16 24.8889 14.2222)" class="st1" width="3.6" height="3.6"/>
	
		<rect x="28.4" y="14.2" transform="matrix(-1.836970e-16 1 -1 -1.836970e-16 46.2222 -14.2222)" class="st1" width="3.6" height="3.6"/>
	
		<rect x="28.4" y="10.7" transform="matrix(-1.836970e-16 1 -1 -1.836970e-16 42.6667 -17.7778)" class="st1" width="3.6" height="3.6"/>
	
		<rect x="28.4" y="17.8" transform="matrix(-1.836970e-16 1 -1 -1.836970e-16 49.7778 -10.6667)" class="st1" width="3.6" height="3.6"/>
	
		<rect x="28.4" y="21.3" transform="matrix(-1.836970e-16 1 -1 -1.836970e-16 53.3333 -7.1111)" class="st1" width="3.6" height="3.6"/>
	
		<rect x="28.4" y="24.9" transform="matrix(-1.836970e-16 1 -1 -1.836970e-16 56.8889 -3.5556)" class="st1" width="3.6" height="3.6"/>
	<rect x="10.7" y="7.1" class="st1" width="3.6" height="3.6"/>
	<rect x="14.2" y="7.1" class="st1" width="3.6" height="3.6"/>
	<rect x="14.2" class="st1" width="3.6" height="3.6"/>
	<rect x="14.2" y="3.6" class="st1" width="3.6" height="3.6"/>
	<rect x="17.8" y="7.1" class="st1" width="3.6" height="3.6"/>
	<rect x="21.3" y="7.1" class="st1" width="3.6" height="3.6"/>
	<rect x="24.9" y="7.1" class="st1" width="3.6" height="3.6"/>
	<rect x="28.4" y="7.1" class="st1" width="3.6" height="3.6"/>
</g>
<g id="Calque_7" class="st0">
	
		<rect x="28.4" y="21.3" transform="matrix(6.123234e-17 -1 1 6.123234e-17 7.1077 53.3222)" class="st1" width="3.6" height="3.6"/>
	
		<rect x="28.4" y="17.8" transform="matrix(6.123234e-17 -1 1 6.123234e-17 10.6633 49.7666)" class="st1" width="3.6" height="3.6"/>
	
		<rect x="28.4" y="14.2" transform="matrix(6.123234e-17 -1 1 6.123234e-17 14.2188 46.2111)" class="st1" width="3.6" height="3.6"/>
	
		<rect x="28.4" y="10.7" transform="matrix(6.123234e-17 -1 1 6.123234e-17 17.7744 42.6555)" class="st1" width="3.6" height="3.6"/>
	<rect x="28.4" y="7.1" transform="matrix(6.123234e-17 -1 1 6.123234e-17 21.33 39.1)" class="st1" width="3.6" height="3.6"/>
	
		<rect x="24.9" y="21.3" transform="matrix(-1 -1.224647e-16 1.224647e-16 -1 53.3188 46.2145)" class="st1" width="3.6" height="3.6"/>
	
		<rect x="21.3" y="21.3" transform="matrix(-1 -1.224647e-16 1.224647e-16 -1 46.2077 46.2145)" class="st1" width="3.6" height="3.6"/>
	
		<rect x="17.8" y="21.3" transform="matrix(-1 -1.224647e-16 1.224647e-16 -1 39.0966 46.2145)" class="st1" width="3.6" height="3.6"/>
	
		<rect x="17.8" y="24.9" transform="matrix(-1 -1.224647e-16 1.224647e-16 -1 39.1398 53.3256)" class="st1" width="3.6" height="3.6"/>
	
		<rect x="17.8" y="28.4" transform="matrix(-1 -1.224647e-16 1.224647e-16 -1 39.1398 60.4367)" class="st1" width="3.6" height="3.6"/>
	
		<rect x="14.2" y="28.4" transform="matrix(-1 -1.224647e-16 1.224647e-16 -1 32.0287 60.4367)" class="st1" width="3.6" height="3.6"/>
	
		<rect x="10.7" y="24.9" transform="matrix(-1 -1.224647e-16 1.224647e-16 -1 24.9176 53.3256)" class="st1" width="3.6" height="3.6"/>
	
		<rect x="7.1" y="21.3" transform="matrix(-1 -1.224647e-16 1.224647e-16 -1 17.8065 46.2145)" class="st1" width="3.6" height="3.6"/>
	
		<rect x="3.6" y="17.8" transform="matrix(-1 -1.224647e-16 1.224647e-16 -1 10.6657 39.1169)" class="st1" width="3.6" height="3.6"/>
	
		<rect x="3.6" y="10.7" transform="matrix(-1 -1.224647e-16 1.224647e-16 -1 10.6657 24.8811)" class="st1" width="3.6" height="3.6"/>
	<rect x="0" y="14.2" transform="matrix(-1 -1.224647e-16 1.224647e-16 -1 3.5478 32.0057)" class="st1" width="3.6" height="3.6"/>
	<rect x="0" y="17.8" transform="matrix(-1 -1.224647e-16 1.224647e-16 -1 3.5545 39.1169)" class="st1" width="3.6" height="3.6"/>
	
		<rect x="3.6" y="21.3" transform="matrix(-1 -1.224647e-16 1.224647e-16 -1 10.6954 46.2246)" class="st1" width="3.6" height="3.6"/>
	
		<rect x="7.1" y="24.9" transform="matrix(-1 -1.224647e-16 1.224647e-16 -1 17.8065 53.3256)" class="st1" width="3.6" height="3.6"/>
	
		<rect x="10.7" y="28.4" transform="matrix(-1 -1.224647e-16 1.224647e-16 -1 24.9176 60.4367)" class="st1" width="3.6" height="3.6"/>
	
		<rect x="10.7" y="3.6" transform="matrix(-1 -1.224647e-16 1.224647e-16 -1 24.8879 10.6589)" class="st1" width="3.6" height="3.6"/>
	<rect x="7.1" y="7.1" transform="matrix(-1 -1.224647e-16 1.224647e-16 -1 17.7768 17.77)" class="st1" width="3.6" height="3.6"/>
	<rect x="17.8" y="0" transform="matrix(-1 -1.224647e-16 1.224647e-16 -1 39.0966 3.5478)" class="st1" width="3.6" height="3.6"/>
	<rect x="14.2" y="0" transform="matrix(-1 -1.224647e-16 1.224647e-16 -1 31.9855 3.5478)" class="st1" width="3.6" height="3.6"/>
	<rect x="0" y="10.7" transform="matrix(-1 -1.224647e-16 1.224647e-16 -1 3.5545 24.8946)" class="st1" width="3.6" height="3.6"/>
	
		<rect x="7.1" y="3.6" transform="matrix(-1 -1.224647e-16 1.224647e-16 -1 17.7768 10.6589)" class="st1" width="3.6" height="3.6"/>
	<rect x="3.6" y="7.1" transform="matrix(-1 -1.224647e-16 1.224647e-16 -1 10.6657 17.77)" class="st1" width="3.6" height="3.6"/>
	<rect x="10.7" y="0" transform="matrix(-1 -1.224647e-16 1.224647e-16 -1 24.8879 3.5478)" class="st1" width="3.6" height="3.6"/>
	
		<rect x="17.8" y="3.6" transform="matrix(-1 -1.224647e-16 1.224647e-16 -1 39.0966 10.6589)" class="st1" width="3.6" height="3.6"/>
	
		<rect x="24.9" y="7.1" transform="matrix(-1 -1.224647e-16 1.224647e-16 -1 53.3188 17.77)" class="st1" width="3.6" height="3.6"/>
	
		<rect x="21.3" y="7.1" transform="matrix(-1 -1.224647e-16 1.224647e-16 -1 46.2077 17.77)" class="st1" width="3.6" height="3.6"/>
	
		<rect x="17.8" y="7.1" transform="matrix(-1 -1.224647e-16 1.224647e-16 -1 39.0966 17.77)" class="st1" width="3.6" height="3.6"/>
</g>
<g id="Calque_16" class="st0">
	
		<rect x="28.5" y="17.8" transform="matrix(6.123234e-17 -1 1 6.123234e-17 10.6697 49.8001)" class="st1" width="3.6" height="3.6"/>
	
		<rect x="17.8" y="21.3" transform="matrix(6.123234e-17 -1 1 6.123234e-17 -3.5508 42.6873)" class="st1" width="3.6" height="3.6"/>
	
		<rect x="28.5" y="14.2" transform="matrix(6.123234e-17 -1 1 6.123234e-17 14.232 46.2378)" class="st1" width="3.6" height="3.6"/>
	
		<rect x="28.5" y="10.7" transform="matrix(6.123234e-17 -1 1 6.123234e-17 17.7876 42.6822)" class="st1" width="3.6" height="3.6"/>
	
		<rect x="17.8" y="10.7" transform="matrix(6.123234e-17 -1 1 6.123234e-17 7.1358 32.0439)" class="st1" width="3.6" height="3.6"/>
	
		<rect x="24.9" y="17.8" transform="matrix(-1 -1.224647e-16 1.224647e-16 -1 53.3587 39.1304)" class="st1" width="3.6" height="3.6"/>
	
		<rect x="21.3" y="17.8" transform="matrix(-1 -1.224647e-16 1.224647e-16 -1 46.2476 39.1304)" class="st1" width="3.6" height="3.6"/>
	
		<rect x="17.8" y="17.8" transform="matrix(-1 -1.224647e-16 1.224647e-16 -1 39.1364 39.1304)" class="st1" width="3.6" height="3.6"/>
	
		<rect x="17.8" y="24.9" transform="matrix(-1 -1.224647e-16 1.224647e-16 -1 39.1797 53.3391)" class="st1" width="3.6" height="3.6"/>
	
		<rect x="17.8" y="28.4" transform="matrix(-1 -1.224647e-16 1.224647e-16 -1 39.1797 60.4502)" class="st1" width="3.6" height="3.6"/>
	
		<rect x="14.3" y="28.4" transform="matrix(-1 -1.224647e-16 1.224647e-16 -1 32.0686 60.4502)" class="st1" width="3.6" height="3.6"/>
	
		<rect x="10.7" y="24.9" transform="matrix(-1 -1.224647e-16 1.224647e-16 -1 24.9575 53.3391)" class="st1" width="3.6" height="3.6"/>
	
		<rect x="7.1" y="21.3" transform="matrix(-1 -1.224647e-16 1.224647e-16 -1 17.8463 46.228)" class="st1" width="3.6" height="3.6"/>
	
		<rect x="3.6" y="17.8" transform="matrix(-1 -1.224647e-16 1.224647e-16 -1 10.7055 39.1304)" class="st1" width="3.6" height="3.6"/>
	
		<rect x="3.6" y="10.7" transform="matrix(-1 -1.224647e-16 1.224647e-16 -1 10.7055 24.8946)" class="st1" width="3.6" height="3.6"/>
	<rect x="0" y="14.2" transform="matrix(-1 -1.224647e-16 1.224647e-16 -1 3.5876 32.0193)" class="st1" width="3.6" height="3.6"/>
	<rect x="0" y="17.8" transform="matrix(-1 -1.224647e-16 1.224647e-16 -1 3.5944 39.1304)" class="st1" width="3.6" height="3.6"/>
	
		<rect x="3.6" y="21.3" transform="matrix(-1 -1.224647e-16 1.224647e-16 -1 10.7352 46.2381)" class="st1" width="3.6" height="3.6"/>
	
		<rect x="7.1" y="24.9" transform="matrix(-1 -1.224647e-16 1.224647e-16 -1 17.8463 53.3391)" class="st1" width="3.6" height="3.6"/>
	
		<rect x="10.7" y="28.4" transform="matrix(-1 -1.224647e-16 1.224647e-16 -1 24.9575 60.4502)" class="st1" width="3.6" height="3.6"/>
	
		<rect x="10.7" y="3.6" transform="matrix(-1 -1.224647e-16 1.224647e-16 -1 24.9277 10.6724)" class="st1" width="3.6" height="3.6"/>
	
		<rect x="7.1" y="7.1" transform="matrix(-1 -1.224647e-16 1.224647e-16 -1 17.8166 17.7835)" class="st1" width="3.6" height="3.6"/>
	<rect x="17.8" y="0" transform="matrix(-1 -1.224647e-16 1.224647e-16 -1 39.1364 3.5613)" class="st1" width="3.6" height="3.6"/>
	<rect x="14.2" y="0" transform="matrix(-1 -1.224647e-16 1.224647e-16 -1 32.0253 3.5613)" class="st1" width="3.6" height="3.6"/>
	<rect x="0" y="10.7" transform="matrix(-1 -1.224647e-16 1.224647e-16 -1 3.5944 24.9081)" class="st1" width="3.6" height="3.6"/>
	
		<rect x="7.1" y="3.6" transform="matrix(-1 -1.224647e-16 1.224647e-16 -1 17.8166 10.6724)" class="st1" width="3.6" height="3.6"/>
	
		<rect x="3.6" y="7.1" transform="matrix(-1 -1.224647e-16 1.224647e-16 -1 10.7055 17.7835)" class="st1" width="3.6" height="3.6"/>
	<rect x="10.7" y="0" transform="matrix(-1 -1.224647e-16 1.224647e-16 -1 24.9277 3.5613)" class="st1" width="3.6" height="3.6"/>
	
		<rect x="17.8" y="3.6" transform="matrix(-1 -1.224647e-16 1.224647e-16 -1 39.1364 10.6724)" class="st1" width="3.6" height="3.6"/>
	
		<rect x="24.9" y="10.7" transform="matrix(-1 -1.224647e-16 1.224647e-16 -1 53.3587 24.9081)" class="st1" width="3.6" height="3.6"/>
	
		<rect x="21.3" y="10.7" transform="matrix(-1 -1.224647e-16 1.224647e-16 -1 46.2476 24.9081)" class="st1" width="3.6" height="3.6"/>
	
		<rect x="17.8" y="7.1" transform="matrix(-1 -1.224647e-16 1.224647e-16 -1 39.1364 17.7835)" class="st1" width="3.6" height="3.6"/>
</g>
<g id="Calque_10" class="st0">
	
		<rect x="17.8" y="17.8" transform="matrix(-1 -1.224647e-16 1.224647e-16 -1 39.126 39.1179)" class="st1" width="3.6" height="3.6"/>
	
		<rect x="21.3" y="17.8" transform="matrix(-1 -1.224647e-16 1.224647e-16 -1 46.2371 39.1304)" class="st1" width="3.6" height="3.6"/>
	
		<rect x="17.8" y="21.3" transform="matrix(-1 -1.224647e-16 1.224647e-16 -1 39.1044 46.2155)" class="st1" width="3.6" height="3.6"/>
	
		<rect x="17.8" y="24.9" transform="matrix(-1 -1.224647e-16 1.224647e-16 -1 39.1476 53.3266)" class="st1" width="3.6" height="3.6"/>
	
		<rect x="17.8" y="28.4" transform="matrix(-1 -1.224647e-16 1.224647e-16 -1 39.1476 60.4512)" class="st1" width="3.6" height="3.6"/>
	
		<rect x="10.7" y="24.9" transform="matrix(-1 -1.224647e-16 1.224647e-16 -1 24.947 53.3401)" class="st1" width="3.6" height="3.6"/>
	
		<rect x="10.7" y="21.3" transform="matrix(-1 -1.224647e-16 1.224647e-16 -1 24.8821 46.229)" class="st1" width="3.6" height="3.6"/>
	
		<rect x="7.1" y="21.3" transform="matrix(-1 -1.224647e-16 1.224647e-16 -1 17.8359 46.229)" class="st1" width="3.6" height="3.6"/>
	
		<rect x="7.1" y="17.8" transform="matrix(-1 -1.224647e-16 1.224647e-16 -1 17.7926 39.1179)" class="st1" width="3.6" height="3.6"/>
	
		<rect x="3.6" y="17.8" transform="matrix(-1 -1.224647e-16 1.224647e-16 -1 10.7248 39.1179)" class="st1" width="3.6" height="3.6"/>
	<rect x="0" y="14.2" transform="matrix(-1 -1.224647e-16 1.224647e-16 -1 3.5839 32.0203)" class="st1" width="3.6" height="3.6"/>
	
		<rect x="14.3" y="28.4" transform="matrix(-1 -1.224647e-16 1.224647e-16 -1 32.0581 60.4512)" class="st1" width="3.6" height="3.6"/>
	
		<rect x="14.3" y="24.9" transform="matrix(-1 -1.224647e-16 1.224647e-16 -1 32.0581 53.3266)" class="st1" width="3.6" height="3.6"/>
	
		<rect x="7.1" y="7.1" transform="matrix(-1 -1.224647e-16 1.224647e-16 -1 17.8426 17.771)" class="st1" width="3.6" height="3.6"/>
	
		<rect x="7.1" y="10.7" transform="matrix(-1 -1.224647e-16 1.224647e-16 -1 17.8426 24.9081)" class="st1" width="3.6" height="3.6"/>
	
		<rect x="3.6" y="10.7" transform="matrix(-1 -1.224647e-16 1.224647e-16 -1 10.7315 24.8821)" class="st1" width="3.6" height="3.6"/>
	
		<rect x="3.6" y="14.2" transform="matrix(-1 -1.224647e-16 1.224647e-16 -1 10.7315 32.0203)" class="st1" width="3.6" height="3.6"/>
	
		<rect x="10.7" y="3.6" transform="matrix(-1 -1.224647e-16 1.224647e-16 -1 24.9402 10.6599)" class="st1" width="3.6" height="3.6"/>
	
		<rect x="10.7" y="7.1" transform="matrix(-1 -1.224647e-16 1.224647e-16 -1 24.9402 17.7845)" class="st1" width="3.6" height="3.6"/>
	
		<rect x="28.4" y="10.7" transform="matrix(-1 -1.224647e-16 1.224647e-16 -1 60.4161 24.9081)" class="st1" width="3.6" height="3.6"/>
	
		<rect x="24.9" y="10.7" transform="matrix(-1 -1.224647e-16 1.224647e-16 -1 53.3266 24.9081)" class="st1" width="3.6" height="3.6"/>
	
		<rect x="28.4" y="14.2" transform="matrix(-1 -1.224647e-16 1.224647e-16 -1 60.4161 32.0193)" class="st1" width="3.6" height="3.6"/>
	
		<rect x="28.4" y="17.8" transform="matrix(-1 -1.224647e-16 1.224647e-16 -1 60.4161 39.1304)" class="st1" width="3.6" height="3.6"/>
	
		<rect x="24.9" y="17.8" transform="matrix(-1 -1.224647e-16 1.224647e-16 -1 53.3266 39.1304)" class="st1" width="3.6" height="3.6"/>
	
		<rect x="17.8" y="10.7" transform="matrix(-1 -1.224647e-16 1.224647e-16 -1 39.126 24.8821)" class="st1" width="3.6" height="3.6"/>
	
		<rect x="17.8" y="7.1" transform="matrix(-1 -1.224647e-16 1.224647e-16 -1 39.1476 17.7845)" class="st1" width="3.6" height="3.6"/>
	
		<rect x="17.8" y="3.6" transform="matrix(-1 -1.224647e-16 1.224647e-16 -1 39.1476 10.6599)" class="st1" width="3.6" height="3.6"/>
	<rect x="17.8" y="0" transform="matrix(-1 -1.224647e-16 1.224647e-16 -1 39.1476 3.5488)" class="st1" width="3.6" height="3.6"/>
	<rect x="14.3" y="0" transform="matrix(-1 -1.224647e-16 1.224647e-16 -1 32.0581 3.5488)" class="st1" width="3.6" height="3.6"/>
	
		<rect x="14.3" y="3.6" transform="matrix(-1 -1.224647e-16 1.224647e-16 -1 32.0581 10.6599)" class="st1" width="3.6" height="3.6"/>
	
		<rect x="21.3" y="10.7" transform="matrix(-1 -1.224647e-16 1.224647e-16 -1 46.2371 24.8821)" class="st1" width="3.6" height="3.6"/>
</g>
<g id="Calque_8" class="st0">
	<rect y="3.6" class="st1" width="3.6" height="3.6"/>
	<rect y="7.1" class="st1" width="3.6" height="3.6"/>
	<rect y="10.7" class="st1" width="3.6" height="3.6"/>
	<rect y="14.2" class="st1" width="3.6" height="3.6"/>
	<rect x="3.6" class="st1" width="3.6" height="3.6"/>
	<rect x="7.1" y="3.6" class="st1" width="3.6" height="3.6"/>
	<rect x="10.7" y="7.1" class="st1" width="3.6" height="3.6"/>
	<rect x="14.2" y="10.7" class="st1" width="3.6" height="3.6"/>
	<rect x="17.8" y="14.2" class="st1" width="3.6" height="3.6"/>
	<rect x="21.3" y="17.8" class="st1" width="3.6" height="3.6"/>
	<rect x="24.9" y="21.3" class="st1" width="3.6" height="3.6"/>
	<rect x="24.9" y="24.9" class="st1" width="3.6" height="3.6"/>
	<rect x="21.3" y="24.9" class="st1" width="3.6" height="3.6"/>
	<rect x="17.8" y="24.9" class="st1" width="3.6" height="3.6"/>
	<rect x="17.8" y="28.4" class="st1" width="3.6" height="3.6"/>
	<rect x="21.3" y="32" class="st1" width="3.6" height="3.6"/>
	<rect x="21.3" y="35.6" class="st1" width="3.6" height="3.6"/>
	<rect y="17.8" class="st1" width="3.6" height="3.6"/>
	<rect y="21.3" class="st1" width="3.6" height="3.6"/>
	<rect y="24.9" class="st1" width="3.6" height="3.6"/>
	<rect y="28.4" class="st1" width="3.6" height="3.6"/>
	<rect y="32" class="st1" width="3.6" height="3.6"/>
	<rect y="35.6" class="st1" width="3.6" height="3.6"/>
	<rect x="3.6" y="35.6" class="st1" width="3.6" height="3.6"/>
	<rect x="7.1" y="32" class="st1" width="3.6" height="3.6"/>
	<rect x="10.7" y="28.4" class="st1" width="3.6" height="3.6"/>
	<rect x="10.7" y="32" class="st1" width="3.6" height="3.6"/>
	<rect x="14.2" y="35.4" class="st1" width="3.6" height="3.6"/>
	<rect x="14.2" y="38.9" class="st1" width="3.6" height="3.6"/>
	<rect x="17.8" y="38.9" class="st1" width="3.6" height="3.6"/>
</g>
<g id="Calque_8_-_copie" class="st0">
	<rect y="3.6" class="st1" width="3.6" height="3.6"/>
	<rect y="7.1" class="st1" width="3.6" height="3.6"/>
	<rect y="10.7" class="st1" width="3.6" height="3.6"/>
	<rect y="14.2" class="st1" width="3.6" height="3.6"/>
	<rect x="3.6" class="st1" width="3.6" height="3.6"/>
	<rect x="7.1" y="3.6" class="st1" width="3.6" height="3.6"/>
	<rect x="10.7" y="7.1" class="st1" width="3.6" height="3.6"/>
	<rect x="14.2" y="10.7" class="st1" width="3.6" height="3.6"/>
	<rect x="17.8" y="14.2" class="st1" width="3.6" height="3.6"/>
	<rect x="21.3" y="17.8" class="st1" width="3.6" height="3.6"/>
	<rect x="24.9" y="21.3" class="st1" width="3.6" height="3.6"/>
	<rect x="28.4" y="24.9" class="st1" width="3.6" height="3.6"/>
	<rect x="32" y="28.4" class="st1" width="3.6" height="3.6"/>
	<rect x="35.6" y="32" class="st1" width="3.6" height="3.6"/>
	<rect x="32" y="32" class="st1" width="3.6" height="3.6"/>
	<rect x="28.4" y="32" class="st1" width="3.6" height="3.6"/>
	<rect x="24.9" y="32" class="st1" width="3.6" height="3.6"/>
	<rect y="17.8" class="st1" width="3.6" height="3.6"/>
	<rect y="21.3" class="st1" width="3.6" height="3.6"/>
	<rect y="24.9" class="st1" width="3.6" height="3.6"/>
	<rect y="28.4" class="st1" width="3.6" height="3.6"/>
	<rect y="32" class="st1" width="3.6" height="3.6"/>
	<rect y="35.6" class="st1" width="3.6" height="3.6"/>
	<rect y="39.1" class="st1" width="3.6" height="3.6"/>
	<rect y="42.7" class="st1" width="3.6" height="3.6"/>
	<rect x="3.6" y="39.1" class="st1" width="3.6" height="3.6"/>
	<rect x="7.1" y="35.6" class="st1" width="3.6" height="3.6"/>
	<rect x="10.7" y="32" class="st1" width="3.6" height="3.6"/>
	<rect x="10.7" y="35.6" class="st1" width="3.6" height="3.6"/>
	<rect x="21.3" y="32" class="st1" width="3.6" height="3.6"/>
	<rect x="17.8" y="32" class="st1" width="3.6" height="3.6"/>
	<rect x="14.2" y="39.1" class="st1" width="3.6" height="3.6"/>
	<rect x="14.2" y="42.7" class="st1" width="3.6" height="3.6"/>
	<rect x="21.3" y="35.6" class="st1" width="3.6" height="3.6"/>
	<rect x="21.3" y="39.1" class="st1" width="3.6" height="3.6"/>
	<rect x="17.8" y="46.2" class="st1" width="3.6" height="3.6"/>
	<rect x="21.3" y="42.7" class="st1" width="3.6" height="3.6"/>
</g>
<g id="Calque_2" class="st0">
	<rect x="0" y="7.1" transform="matrix(-1.836970e-16 1 -1 -1.836970e-16 10.6667 7.1111)" class="st1" width="3.6" height="3.6"/>
	
		<rect x="3.6" y="7.1" transform="matrix(-1.836970e-16 1 -1 -1.836970e-16 14.2222 3.5556)" class="st1" width="3.6" height="3.6"/>
	<rect y="10.7" transform="matrix(-1.836970e-16 1 -1 -1.836970e-16 14.2222 10.6667)" class="st1" width="3.6" height="3.6"/>
	<rect y="14.2" transform="matrix(-1.836970e-16 1 -1 -1.836970e-16 17.7778 14.2222)" class="st1" width="3.6" height="3.6"/>
	
		<rect x="0" y="17.8" transform="matrix(-1.836970e-16 1 -1 -1.836970e-16 21.3333 17.7778)" class="st1" width="3.6" height="3.6"/>
	
		<rect x="0" y="21.3" transform="matrix(-1.836970e-16 1 -1 -1.836970e-16 24.8889 21.3333)" class="st1" width="3.6" height="3.6"/>
	
		<rect x="3.6" y="21.3" transform="matrix(-1.836970e-16 1 -1 -1.836970e-16 28.4444 17.7778)" class="st1" width="3.6" height="3.6"/>
	
		<rect x="14.2" y="0" transform="matrix(-1.836970e-16 1 -1 -1.836970e-16 17.7778 -14.2222)" class="st1" width="3.6" height="3.6"/>
	
		<rect x="10.7" y="0" transform="matrix(-1.836970e-16 1 -1 -1.836970e-16 14.2222 -10.6667)" class="st1" width="3.6" height="3.6"/>
	
		<rect x="7.1" y="3.6" transform="matrix(-1.836970e-16 1 -1 -1.836970e-16 14.2222 -3.5556)" class="st1" width="3.6" height="3.6"/>
	
		<rect x="14.2" y="3.6" transform="matrix(-1.836970e-16 1 -1 -1.836970e-16 21.3333 -10.6667)" class="st1" width="3.6" height="3.6"/>
	
		<rect x="14.2" y="7.1" transform="matrix(-1.836970e-16 1 -1 -1.836970e-16 24.8889 -7.1111)" class="st1" width="3.6" height="3.6"/>
	
		<rect x="14.2" y="10.7" transform="matrix(-1.836970e-16 1 -1 -1.836970e-16 28.4444 -3.5556)" class="st1" width="3.6" height="3.6"/>
	
		<rect x="14.2" y="14.2" transform="matrix(-1.836970e-16 1 -1 -1.836970e-16 32 -4.511946e-13)" class="st1" width="3.6" height="3.6"/>
	
		<rect x="14.2" y="17.8" transform="matrix(-1.836970e-16 1 -1 -1.836970e-16 35.5556 3.5556)" class="st1" width="3.6" height="3.6"/>
	
		<rect x="14.2" y="21.3" transform="matrix(-1.836970e-16 1 -1 -1.836970e-16 39.1111 7.1111)" class="st1" width="3.6" height="3.6"/>
	
		<rect x="14.2" y="24.9" transform="matrix(-1.836970e-16 1 -1 -1.836970e-16 42.6667 10.6667)" class="st1" width="3.6" height="3.6"/>
	
		<rect x="14.2" y="28.4" transform="matrix(-1.836970e-16 1 -1 -1.836970e-16 46.2222 14.2222)" class="st1" width="3.6" height="3.6"/>
	
		<rect x="10.7" y="28.4" transform="matrix(-1.836970e-16 1 -1 -1.836970e-16 42.6667 17.7778)" class="st1" width="3.6" height="3.6"/>
	
		<rect x="7.1" y="24.9" transform="matrix(-1.836970e-16 1 -1 -1.836970e-16 35.5556 17.7778)" class="st1" width="3.6" height="3.6"/>
</g>
<g id="Calque_3" class="st0">
	
		<rect x="21.3" y="14.2" transform="matrix(-1.836970e-16 1 -1 -1.836970e-16 39.1111 -7.1111)" class="st1" width="3.6" height="3.6"/>
	
		<rect x="21.3" y="17.8" transform="matrix(-1.836970e-16 1 -1 -1.836970e-16 42.6667 -3.5556)" class="st1" width="3.6" height="3.6"/>
	
		<rect x="21.3" y="10.7" transform="matrix(-1.836970e-16 1 -1 -1.836970e-16 35.5556 -10.6667)" class="st1" width="3.6" height="3.6"/>
	
		<rect x="28.4" y="14.2" transform="matrix(-1.836970e-16 1 -1 -1.836970e-16 46.2222 -14.2222)" class="st1" width="3.6" height="3.6"/>
	
		<rect x="28.4" y="17.8" transform="matrix(-1.836970e-16 1 -1 -1.836970e-16 49.7778 -10.6667)" class="st1" width="3.6" height="3.6"/>
	
		<rect x="28.4" y="21.3" transform="matrix(-1.836970e-16 1 -1 -1.836970e-16 53.3333 -7.1111)" class="st1" width="3.6" height="3.6"/>
	
		<rect x="28.4" y="10.7" transform="matrix(-1.836970e-16 1 -1 -1.836970e-16 42.6667 -17.7778)" class="st1" width="3.6" height="3.6"/>
	
		<rect x="28.4" y="7.1" transform="matrix(-1.836970e-16 1 -1 -1.836970e-16 39.1111 -21.3333)" class="st1" width="3.6" height="3.6"/>
	
		<rect x="28.4" y="3.6" transform="matrix(-1.836970e-16 1 -1 -1.836970e-16 35.5556 -24.8889)" class="st1" width="3.6" height="3.6"/>
	
		<rect x="28.4" y="24.9" transform="matrix(-1.836970e-16 1 -1 -1.836970e-16 56.8889 -3.5556)" class="st1" width="3.6" height="3.6"/>
</g>
<g id="Calque_9" class="st0">
	
		<rect x="21.3" y="10.7" transform="matrix(-1.836970e-16 1 -1 -1.836970e-16 35.5556 -10.6667)" class="st1" width="3.6" height="3.6"/>
	
		<rect x="24.9" y="14.2" transform="matrix(-1.836970e-16 1 -1 -1.836970e-16 42.6667 -10.6667)" class="st1" width="3.6" height="3.6"/>
	
		<rect x="28.4" y="17.8" transform="matrix(-1.836970e-16 1 -1 -1.836970e-16 49.7778 -10.6667)" class="st1" width="3.6" height="3.6"/>
	
		<rect x="21.3" y="17.8" transform="matrix(-1.836970e-16 1 -1 -1.836970e-16 42.6667 -3.5556)" class="st1" width="3.6" height="3.6"/>
	
		<rect x="28.4" y="10.7" transform="matrix(-1.836970e-16 1 -1 -1.836970e-16 42.6667 -17.7778)" class="st1" width="3.6" height="3.6"/>
</g>
<g id="Calque_4">
	<polygon class="st2" points="14.2,10.7 17.8,10.7 17.8,7.1 14.2,7.1 10.7,7.1 7.1,7.1 7.1,10.7 10.7,10.7 	"/>
	<polygon class="st2" points="17.8,14.2 14.2,14.2 10.7,14.2 7.1,14.2 7.1,17.8 10.7,17.8 14.2,17.8 17.8,17.8 21.3,17.8 24.9,17.8 
		24.9,14.2 21.3,14.2 	"/>
	<path class="st2" d="M29.6,7.1h-1.2V3.6h-3.6V0h-3.6h-3.6h-3.6h-3.6H7.1H3.6H0v3.6v3.6v3.6v3.6v3.6v3.6v3.6v3.6V32h3.6h3.6h3.6h3.6
		h3.6h3.6h3.6h3.6H32v-3.6v-3.6v-3.6v-3.6v-3.6v-3.6V7.1h-1.2H29.6z M28.4,28.4h-3.6h-3.6h-3.6h-3.6h-3.6H7.1H3.6v-3.6v-3.6v-3.6
		v-3.6v-3.6V7.1V3.6h3.6h3.6h3.6h3.6h3.6h0v3.6h3.6v3.6h3.6"/>
</g>
<g id="Calque_5" class="st0">
	<rect y="28.4" class="st1" width="3.6" height="3.6"/>
	<rect y="24.9" class="st1" width="3.6" height="3.6"/>
	<rect x="0" y="21.3" class="st1" width="3.6" height="3.6"/>
	<rect x="0" y="17.8" class="st1" width="3.6" height="3.6"/>
	<rect y="14.2" class="st1" width="3.6" height="3.6"/>
	<rect x="0" y="10.7" class="st1" width="3.6" height="3.6"/>
	<rect x="28.4" y="24.9" class="st1" width="3.6" height="3.6"/>
	<rect x="28.4" y="21.3" class="st1" width="3.6" height="3.6"/>
	<rect x="28.4" y="17.8" class="st1" width="3.6" height="3.6"/>
	<rect x="21.3" y="17.8" class="st1" width="3.6" height="3.6"/>
	<rect x="7.1" y="17.8" class="st1" width="3.6" height="3.6"/>
	<rect x="28.4" y="14.2" class="st1" width="3.6" height="3.6"/>
	<rect x="28.4" y="10.7" class="st1" width="3.6" height="3.6"/>
	<rect x="3.6" y="28.4" class="st1" width="3.6" height="3.6"/>
	<rect x="7.1" y="28.4" class="st1" width="3.6" height="3.6"/>
	<rect x="10.7" y="28.4" class="st1" width="3.6" height="3.6"/>
	<rect x="14.2" y="28.4" class="st1" width="3.6" height="3.6"/>
	<rect x="17.8" y="28.4" class="st1" width="3.6" height="3.6"/>
	<rect x="21.3" y="28.4" class="st1" width="3.6" height="3.6"/>
	<rect x="24.9" y="28.4" class="st1" width="3.6" height="3.6"/>
	<rect x="28.4" y="28.4" class="st1" width="3.6" height="3.6"/>
	<rect y="7.1" class="st1" width="3.6" height="3.6"/>
	<rect x="3.6" y="7.1" class="st1" width="3.6" height="3.6"/>
	<rect x="7.1" y="7.1" class="st1" width="3.6" height="3.6"/>
	<rect x="10.7" y="7.1" class="st1" width="3.6" height="3.6"/>
	<rect x="14.2" y="7.1" class="st1" width="3.6" height="3.6"/>
	<rect x="3.6" y="3.6" class="st1" width="3.6" height="3.6"/>
	<rect x="3.6" class="st1" width="3.6" height="3.6"/>
	<rect x="17.8" y="7.1" class="st1" width="3.6" height="3.6"/>
	<rect x="21.3" y="7.1" class="st1" width="3.6" height="3.6"/>
	<rect x="24.9" y="7.1" class="st1" width="3.6" height="3.6"/>
	<rect x="28.4" y="7.1" class="st1" width="3.6" height="3.6"/>
</g>
<g id="Calque_15" class="st0">
</g>
<g id="Calque_14" class="st0">
</g>
<g id="Calque_13" class="st0">
	<g class="st1">
		<polygon class="st3" points="1,3.2 1.2,6.6 7.2,12.7 7,20.3 12,24.8 17.8,25.3 21.3,30.2 23.4,28.7 32,20 27,15 27.2,9 25,7.2 
			25,4.5 22.8,3.2 21.3,1 17,1 15,3 9,5 7,3 5,1 2.6,1.4 		"/>
		<rect x="2" y="6" class="st4" width="2" height="2"/>
		<rect x="6" y="14" class="st4" width="2" height="2"/>
		<rect x="4" y="8" class="st4" width="2" height="2"/>
		<rect x="6" y="10" class="st4" width="2" height="2"/>
		<rect x="8" y="12" class="st4" width="2" height="2"/>
		<rect x="6" y="16" class="st4" width="2" height="2"/>
		<rect x="6" y="18" class="st4" width="2" height="2"/>
		<rect x="8" y="20" class="st4" width="2" height="2"/>
		<rect x="10" y="22" class="st4" width="2" height="2"/>
		<rect x="12" y="22" class="st4" width="2" height="2"/>
		<rect x="14" y="22" class="st4" width="2" height="2"/>
		<rect x="16" y="22" class="st4" width="2" height="2"/>
		<rect x="18" y="26" class="st4" width="2" height="2"/>
		<rect x="18" y="28" class="st4" width="2" height="2"/>
		<rect x="20" y="28" class="st4" width="2" height="2"/>
		<rect x="2" width="2" height="2"/>
		<rect x="4" width="2" height="2"/>
		<rect x="6" y="2" width="2" height="2"/>
		<rect x="8" y="4" width="2" height="2"/>
		<rect x="10" y="4" width="2" height="2"/>
		<rect x="12" y="6" width="2" height="2"/>
		<rect x="16" y="4" width="2" height="2"/>
		<rect x="20" y="9" width="2" height="2"/>
		<rect x="22" y="11" width="2" height="2"/>
		<rect x="16" y="11" width="2" height="2"/>
		<rect x="18" y="13" width="2" height="2"/>
		<rect x="12" y="2" width="2" height="2"/>
		<rect x="14" y="2" width="2" height="2"/>
		<rect x="16" y="0" width="2" height="2"/>
		<rect x="18" y="0" width="2" height="2"/>
		<rect x="20" y="0" width="2" height="2"/>
		<rect x="22" y="2" width="2" height="2"/>
		<rect x="24" y="4" width="2" height="2"/>
		<rect x="24" y="6" width="2" height="2"/>
		<rect x="26" y="8" width="2" height="2"/>
		<rect x="26" y="10" width="2" height="2"/>
		<rect x="26" y="12" width="2" height="2"/>
		<rect x="26" y="14" width="2" height="2"/>
		<rect x="24" y="16" width="2" height="2"/>
		<rect x="28" y="16" width="2" height="2"/>
		<rect x="30" y="18" width="2" height="2"/>
		<rect x="30" y="20" width="2" height="2"/>
		<rect x="28" y="22" width="2" height="2"/>
		<rect x="26" y="24" width="2" height="2"/>
		<rect x="24" y="26" width="2" height="2"/>
		<rect x="22" y="28" width="2" height="2"/>
		<rect x="20" y="30" width="2" height="2"/>
		<rect x="18" y="30" width="2" height="2"/>
		<rect x="16" y="28" width="2" height="2"/>
		<rect x="16" y="26" width="2" height="2"/>
		<rect x="16" y="24" width="2" height="2"/>
		<rect x="16" y="24" width="2" height="2"/>
		<rect x="18" y="24" width="2" height="2"/>
		<rect x="20" y="22" width="2" height="2"/>
		<rect x="14" y="24" width="2" height="2"/>
		<rect x="12" y="24" width="2" height="2"/>
		<rect x="10" y="24" width="2" height="2"/>
		<rect x="8" y="22" width="2" height="2"/>
		<rect x="6" y="20" width="2" height="2"/>
		<rect x="4" y="18" width="2" height="2"/>
		<rect x="4" y="16" width="2" height="2"/>
		<rect x="4" y="14" width="2" height="2"/>
		<rect x="6" y="12" width="2" height="2"/>
		<rect x="8" y="14" width="2" height="2"/>
		<rect x="4" y="12" width="2" height="2"/>
		<rect x="4" y="10" width="2" height="2"/>
		<rect x="2" y="8" width="2" height="2"/>
		<rect x="0" y="6" width="2" height="2"/>
		<rect x="0" y="4" width="2" height="2"/>
		<rect x="0" y="2" width="2" height="2"/>
	</g>
</g>
<g id="Calque_12" class="st0">
	<image style="display:inline;overflow:visible;" width="32" height="32" xlink:href="../cursor.png" >
	</image>
</g>
</svg>
